<svg width="388" height="87" viewBox="0 0 388 87" fill="none" xmlns="http://www.w3.org/2000/svg">
<mask id="path-1-outside-1_0_1" maskUnits="userSpaceOnUse" x="10.0276" y="48" width="279" height="28" fill="black">
<rect fill="white" x="10.0276" y="48" width="279" height="28"/>
<path d="M22.0196 51.6H22.6596V74H22.0196V62.896H12.4516V74H11.8116V51.6H12.4516V62.288H22.0196V51.6ZM40.6018 74L38.8738 67.504H30.8418L29.1458 74H28.4738L34.4898 51.6H35.2578L41.2738 74H40.6018ZM31.0338 66.896H38.6818L36.3138 57.872C35.8338 56.048 35.3538 54.256 34.8738 52.432C34.3938 54.256 33.9138 56.048 33.4338 57.872L31.0338 66.896ZM54.4541 51.6V52.208H49.2381V74H48.5981V52.208H43.5421V51.6H54.4541ZM58.5181 74L64.5661 64.592C61.3341 64.4 59.0621 62.16 59.0621 58.096C59.0621 53.808 61.6221 51.6 65.0781 51.6H69.3661V74H68.7261V64.592H65.3341L59.2861 74H58.5181ZM65.0781 63.984H68.7261V52.208H65.0781C61.8781 52.208 59.7021 54.096 59.7021 58.096C59.7021 62.096 61.8781 63.984 65.0781 63.984ZM95.8251 74L88.3051 61.808L86.2571 64.56V74H85.6171V64.56L83.5371 61.808L76.0491 74H75.3131L83.1211 61.264L75.9211 51.6H76.6891L83.1531 60.272L85.6171 63.568V51.6H86.2571V63.536L95.1851 51.6H95.9531L88.6891 61.264L96.5611 74H95.8251ZM112.726 51.6H113.366V74H112.726V62.896H103.158V74H102.518V51.6H103.158V62.288H112.726V51.6ZM121.484 74V51.6H122.124V61.328H126.124C130.092 61.328 132.14 63.568 132.14 67.632C132.14 71.76 130.092 74 126.124 74H121.484ZM134.348 74V51.6H134.988V74H134.348ZM122.124 73.392H126.124C129.772 73.392 131.5 71.472 131.5 67.632C131.5 63.856 129.772 61.936 126.124 61.936H122.124V73.392ZM152.803 52.208H143.747V62.288H152.099V62.896H143.747V73.392H152.803V74H143.107V51.6H152.803V52.208ZM181.293 51.6V74H180.653V52.208H171.085V74H170.445V51.6H181.293ZM194.692 74.352C191.108 74.352 188.804 72.176 188.804 67.856V57.776C188.804 53.424 191.108 51.248 194.692 51.248C198.276 51.248 200.58 53.424 200.58 57.776V67.856C200.58 72.176 198.276 74.352 194.692 74.352ZM194.692 73.744C197.892 73.744 199.94 71.824 199.94 67.856V57.776C199.94 53.776 197.892 51.856 194.692 51.856C191.492 51.856 189.444 53.776 189.444 57.776V67.856C189.444 71.824 191.492 73.744 194.692 73.744ZM216.619 51.6V52.208H211.403V74H210.763V52.208H205.707V51.6H216.619ZM227.593 74.352C224.009 74.352 221.705 72.176 221.705 67.856V57.776C221.705 53.424 224.009 51.248 227.593 51.248C231.177 51.248 233.481 53.424 233.481 57.776V67.856C233.481 72.176 231.177 74.352 227.593 74.352ZM227.593 73.744C230.793 73.744 232.841 71.824 232.841 67.856V57.776C232.841 53.776 230.793 51.856 227.593 51.856C224.393 51.856 222.345 53.776 222.345 57.776V67.856C222.345 71.824 224.393 73.744 227.593 73.744ZM238.534 74.224V73.616C240.326 73.616 240.966 70.64 241.158 69.392C241.478 67.376 241.766 63.632 242.342 51.6H250.63V74H249.99V52.208H242.95C242.406 63.504 242.15 67.024 241.766 69.456C241.542 70.928 240.774 74.224 238.534 74.224ZM269.433 74L261.593 61.776L259.385 64.72V74H258.745V51.6H259.385V63.728L268.601 51.6H269.401L262.009 61.232L270.169 74H269.433ZM276.118 74V51.6H276.758V70.608V72.592C277.142 71.792 277.494 71.024 277.878 70.224L286.678 51.6H287.318V74H286.678V55.504V53.008C286.326 53.744 285.974 54.512 285.622 55.248L276.758 74H276.118Z"/>
</mask>
<path d="M22.0196 51.6H22.6596V74H22.0196V62.896H12.4516V74H11.8116V51.6H12.4516V62.288H22.0196V51.6ZM40.6018 74L38.8738 67.504H30.8418L29.1458 74H28.4738L34.4898 51.6H35.2578L41.2738 74H40.6018ZM31.0338 66.896H38.6818L36.3138 57.872C35.8338 56.048 35.3538 54.256 34.8738 52.432C34.3938 54.256 33.9138 56.048 33.4338 57.872L31.0338 66.896ZM54.4541 51.6V52.208H49.2381V74H48.5981V52.208H43.5421V51.6H54.4541ZM58.5181 74L64.5661 64.592C61.3341 64.4 59.0621 62.16 59.0621 58.096C59.0621 53.808 61.6221 51.6 65.0781 51.6H69.3661V74H68.7261V64.592H65.3341L59.2861 74H58.5181ZM65.0781 63.984H68.7261V52.208H65.0781C61.8781 52.208 59.7021 54.096 59.7021 58.096C59.7021 62.096 61.8781 63.984 65.0781 63.984ZM95.8251 74L88.3051 61.808L86.2571 64.56V74H85.6171V64.56L83.5371 61.808L76.0491 74H75.3131L83.1211 61.264L75.9211 51.6H76.6891L83.1531 60.272L85.6171 63.568V51.6H86.2571V63.536L95.1851 51.6H95.9531L88.6891 61.264L96.5611 74H95.8251ZM112.726 51.6H113.366V74H112.726V62.896H103.158V74H102.518V51.6H103.158V62.288H112.726V51.6ZM121.484 74V51.6H122.124V61.328H126.124C130.092 61.328 132.14 63.568 132.14 67.632C132.14 71.76 130.092 74 126.124 74H121.484ZM134.348 74V51.6H134.988V74H134.348ZM122.124 73.392H126.124C129.772 73.392 131.5 71.472 131.5 67.632C131.5 63.856 129.772 61.936 126.124 61.936H122.124V73.392ZM152.803 52.208H143.747V62.288H152.099V62.896H143.747V73.392H152.803V74H143.107V51.6H152.803V52.208ZM181.293 51.6V74H180.653V52.208H171.085V74H170.445V51.6H181.293ZM194.692 74.352C191.108 74.352 188.804 72.176 188.804 67.856V57.776C188.804 53.424 191.108 51.248 194.692 51.248C198.276 51.248 200.58 53.424 200.58 57.776V67.856C200.58 72.176 198.276 74.352 194.692 74.352ZM194.692 73.744C197.892 73.744 199.94 71.824 199.94 67.856V57.776C199.94 53.776 197.892 51.856 194.692 51.856C191.492 51.856 189.444 53.776 189.444 57.776V67.856C189.444 71.824 191.492 73.744 194.692 73.744ZM216.619 51.6V52.208H211.403V74H210.763V52.208H205.707V51.6H216.619ZM227.593 74.352C224.009 74.352 221.705 72.176 221.705 67.856V57.776C221.705 53.424 224.009 51.248 227.593 51.248C231.177 51.248 233.481 53.424 233.481 57.776V67.856C233.481 72.176 231.177 74.352 227.593 74.352ZM227.593 73.744C230.793 73.744 232.841 71.824 232.841 67.856V57.776C232.841 53.776 230.793 51.856 227.593 51.856C224.393 51.856 222.345 53.776 222.345 57.776V67.856C222.345 71.824 224.393 73.744 227.593 73.744ZM238.534 74.224V73.616C240.326 73.616 240.966 70.64 241.158 69.392C241.478 67.376 241.766 63.632 242.342 51.6H250.63V74H249.99V52.208H242.95C242.406 63.504 242.15 67.024 241.766 69.456C241.542 70.928 240.774 74.224 238.534 74.224ZM269.433 74L261.593 61.776L259.385 64.72V74H258.745V51.6H259.385V63.728L268.601 51.6H269.401L262.009 61.232L270.169 74H269.433ZM276.118 74V51.6H276.758V70.608V72.592C277.142 71.792 277.494 71.024 277.878 70.224L286.678 51.6H287.318V74H286.678V55.504V53.008C286.326 53.744 285.974 54.512 285.622 55.248L276.758 74H276.118Z" fill="#111111"/>
<path d="M22.0196 51.6V50.6H21.0196V51.6H22.0196ZM22.6596 51.6H23.6596V50.6H22.6596V51.6ZM22.6596 74V75H23.6596V74H22.6596ZM22.0196 74H21.0196V75H22.0196V74ZM22.0196 62.896H23.0196V61.896H22.0196V62.896ZM12.4516 62.896V61.896H11.4516V62.896H12.4516ZM12.4516 74V75H13.4516V74H12.4516ZM11.8116 74H10.8116V75H11.8116V74ZM11.8116 51.6V50.6H10.8116V51.6H11.8116ZM12.4516 51.6H13.4516V50.6H12.4516V51.6ZM12.4516 62.288H11.4516V63.288H12.4516V62.288ZM22.0196 62.288V63.288H23.0196V62.288H22.0196ZM22.0196 51.6V52.6H22.6596V51.6V50.6H22.0196V51.6ZM22.6596 51.6H21.6596V74H22.6596H23.6596V51.6H22.6596ZM22.6596 74V73H22.0196V74V75H22.6596V74ZM22.0196 74H23.0196V62.896H22.0196H21.0196V74H22.0196ZM22.0196 62.896V61.896H12.4516V62.896V63.896H22.0196V62.896ZM12.4516 62.896H11.4516V74H12.4516H13.4516V62.896H12.4516ZM12.4516 74V73H11.8116V74V75H12.4516V74ZM11.8116 74H12.8116V51.6H11.8116H10.8116V74H11.8116ZM11.8116 51.6V52.6H12.4516V51.6V50.6H11.8116V51.6ZM12.4516 51.6H11.4516V62.288H12.4516H13.4516V51.6H12.4516ZM12.4516 62.288V63.288H22.0196V62.288V61.288H12.4516V62.288ZM22.0196 62.288H23.0196V51.6H22.0196H21.0196V62.288H22.0196ZM40.6018 74L39.6354 74.2571L39.8331 75H40.6018V74ZM38.8738 67.504L39.8402 67.2469L39.6426 66.504H38.8738V67.504ZM30.8418 67.504V66.504H30.0694L29.8743 67.2514L30.8418 67.504ZM29.1458 74V75H29.9183L30.1134 74.2526L29.1458 74ZM28.4738 74L27.5081 73.7406L27.1698 75H28.4738V74ZM34.4898 51.6V50.6H33.723L33.5241 51.3406L34.4898 51.6ZM35.2578 51.6L36.2236 51.3406L36.0247 50.6H35.2578V51.6ZM41.2738 74V75H42.5778L42.2396 73.7406L41.2738 74ZM31.0338 66.896L30.0674 66.639L29.7331 67.896H31.0338V66.896ZM38.6818 66.896V67.896H39.9781L39.6491 66.6422L38.6818 66.896ZM36.3138 57.872L37.2811 57.6182L37.2809 57.6175L36.3138 57.872ZM34.8738 52.432L35.8409 52.1775L34.8738 48.5026L33.9068 52.1775L34.8738 52.432ZM33.4338 57.872L34.4002 58.129L34.4009 58.1265L33.4338 57.872ZM40.6018 74L41.5682 73.7429L39.8402 67.2469L38.8738 67.504L37.9074 67.7611L39.6354 74.2571L40.6018 74ZM38.8738 67.504V66.504H30.8418V67.504V68.504H38.8738V67.504ZM30.8418 67.504L29.8743 67.2514L28.1783 73.7474L29.1458 74L30.1134 74.2526L31.8094 67.7566L30.8418 67.504ZM29.1458 74V73H28.4738V74V75H29.1458V74ZM28.4738 74L29.4396 74.2594L35.4556 51.8594L34.4898 51.6L33.5241 51.3406L27.5081 73.7406L28.4738 74ZM34.4898 51.6V52.6H35.2578V51.6V50.6H34.4898V51.6ZM35.2578 51.6L34.2921 51.8594L40.3081 74.2594L41.2738 74L42.2396 73.7406L36.2236 51.3406L35.2578 51.6ZM41.2738 74V73H40.6018V74V75H41.2738V74ZM31.0338 66.896V67.896H38.6818V66.896V65.896H31.0338V66.896ZM38.6818 66.896L39.6491 66.6422L37.2811 57.6182L36.3138 57.872L35.3466 58.1258L37.7146 67.1498L38.6818 66.896ZM36.3138 57.872L37.2809 57.6175C37.0406 56.7043 36.8003 55.7992 36.5604 54.8954C36.3203 53.9912 36.0806 53.0883 35.8409 52.1775L34.8738 52.432L33.9068 52.6865C34.1471 53.5997 34.3874 54.5048 34.6273 55.4086C34.8674 56.3128 35.1071 57.2157 35.3468 58.1265L36.3138 57.872ZM34.8738 52.432L33.9068 52.1775C33.6671 53.0883 33.4274 53.9912 33.1873 54.8954C32.9474 55.7992 32.7071 56.7043 32.4668 57.6175L33.4338 57.872L34.4009 58.1265C34.6406 57.2157 34.8803 56.3128 35.1204 55.4086C35.3603 54.5048 35.6006 53.5997 35.8409 52.6865L34.8738 52.432ZM33.4338 57.872L32.4674 57.615L30.0674 66.639L31.0338 66.896L32.0002 67.153L34.4002 58.129L33.4338 57.872ZM54.4541 51.6H55.4541V50.6H54.4541V51.6ZM54.4541 52.208V53.208H55.4541V52.208H54.4541ZM49.2381 52.208V51.208H48.2381V52.208H49.2381ZM49.2381 74V75H50.2381V74H49.2381ZM48.5981 74H47.5981V75H48.5981V74ZM48.5981 52.208H49.5981V51.208H48.5981V52.208ZM43.5421 52.208H42.5421V53.208H43.5421V52.208ZM43.5421 51.6V50.6H42.5421V51.6H43.5421ZM54.4541 51.6H53.4541V52.208H54.4541H55.4541V51.6H54.4541ZM54.4541 52.208V51.208H49.2381V52.208V53.208H54.4541V52.208ZM49.2381 52.208H48.2381V74H49.2381H50.2381V52.208H49.2381ZM49.2381 74V73H48.5981V74V75H49.2381V74ZM48.5981 74H49.5981V52.208H48.5981H47.5981V74H48.5981ZM48.5981 52.208V51.208H43.5421V52.208V53.208H48.5981V52.208ZM43.5421 52.208H44.5421V51.6H43.5421H42.5421V52.208H43.5421ZM43.5421 51.6V52.6H54.4541V51.6V50.6H43.5421V51.6ZM58.5181 74L57.6769 73.4592L56.6864 75H58.5181V74ZM64.5661 64.592L65.4073 65.1328L66.3315 63.6951L64.6254 63.5938L64.5661 64.592ZM69.3661 51.6H70.3661V50.6H69.3661V51.6ZM69.3661 74V75H70.3661V74H69.3661ZM68.7261 74H67.7261V75H68.7261V74ZM68.7261 64.592H69.7261V63.592H68.7261V64.592ZM65.3341 64.592V63.592H64.7881L64.4929 64.0512L65.3341 64.592ZM59.2861 74V75H59.832L60.1273 74.5408L59.2861 74ZM68.7261 63.984V64.984H69.7261V63.984H68.7261ZM68.7261 52.208H69.7261V51.208H68.7261V52.208ZM58.5181 74L59.3593 74.5408L65.4073 65.1328L64.5661 64.592L63.7249 64.0512L57.6769 73.4592L58.5181 74ZM64.5661 64.592L64.6254 63.5938C63.2314 63.5109 62.1187 62.9958 61.349 62.1311C60.5757 61.2623 60.0621 59.9423 60.0621 58.096H59.0621H58.0621C58.0621 60.3137 58.6845 62.1457 59.8551 63.4609C61.0295 64.7802 62.6688 65.4811 64.5068 65.5902L64.5661 64.592ZM59.0621 58.096H60.0621C60.0621 56.1529 60.638 54.803 61.4864 53.9418C62.336 53.0796 63.5644 52.6 65.0781 52.6V51.6V50.6C63.1358 50.6 61.3562 51.2244 60.0618 52.5381C58.7662 53.853 58.0621 55.7511 58.0621 58.096H59.0621ZM65.0781 51.6V52.6H69.3661V51.6V50.6H65.0781V51.6ZM69.3661 51.6H68.3661V74H69.3661H70.3661V51.6H69.3661ZM69.3661 74V73H68.7261V74V75H69.3661V74ZM68.7261 74H69.7261V64.592H68.7261H67.7261V74H68.7261ZM68.7261 64.592V63.592H65.3341V64.592V65.592H68.7261V64.592ZM65.3341 64.592L64.4929 64.0512L58.4449 73.4592L59.2861 74L60.1273 74.5408L66.1753 65.1328L65.3341 64.592ZM59.2861 74V73H58.5181V74V75H59.2861V74ZM65.0781 63.984V64.984H68.7261V63.984V62.984H65.0781V63.984ZM68.7261 63.984H69.7261V52.208H68.7261H67.7261V63.984H68.7261ZM68.7261 52.208V51.208H65.0781V52.208V53.208H68.7261V52.208ZM65.0781 52.208V51.208C63.2828 51.208 61.6515 51.7415 60.4727 52.9553C59.2965 54.1664 58.7021 55.9196 58.7021 58.096H59.7021H60.7021C60.7021 56.2724 61.1957 55.0816 61.9075 54.3487C62.6166 53.6185 63.6734 53.208 65.0781 53.208V52.208ZM59.7021 58.096H58.7021C58.7021 60.2724 59.2965 62.0256 60.4727 63.2367C61.6515 64.4505 63.2828 64.984 65.0781 64.984V63.984V62.984C63.6734 62.984 62.6166 62.5735 61.9075 61.8433C61.1957 61.1104 60.7021 59.9196 60.7021 58.096H59.7021ZM95.8251 74L94.974 74.525L95.267 75H95.8251V74ZM88.3051 61.808L89.1562 61.283L88.3826 60.0288L87.5029 61.211L88.3051 61.808ZM86.2571 64.56L85.4548 63.963L85.2571 64.2287V64.56H86.2571ZM86.2571 74V75H87.2571V74H86.2571ZM85.6171 74H84.6171V75H85.6171V74ZM85.6171 64.56H86.6171V64.2246L86.4149 63.957L85.6171 64.56ZM83.5371 61.808L84.3349 61.205L83.4516 60.0364L82.685 61.2847L83.5371 61.808ZM76.0491 74V75H76.6085L76.9012 74.5233L76.0491 74ZM75.3131 74L74.4605 73.4773L73.5271 75H75.3131V74ZM83.1211 61.264L83.9736 61.7867L84.3275 61.2095L83.923 60.6666L83.1211 61.264ZM75.9211 51.6V50.6H73.929L75.1192 52.1974L75.9211 51.6ZM76.6891 51.6L77.4909 51.0024L77.1909 50.6H76.6891V51.6ZM83.1531 60.272L82.3513 60.8696L82.3522 60.8708L83.1531 60.272ZM85.6171 63.568L84.8162 64.1668L86.6171 66.5758V63.568H85.6171ZM85.6171 51.6V50.6H84.6171V51.6H85.6171ZM86.2571 51.6H87.2571V50.6H86.2571V51.6ZM86.2571 63.536H85.2571V66.5425L87.0579 64.135L86.2571 63.536ZM95.1851 51.6V50.6H94.6843L94.3843 51.001L95.1851 51.6ZM95.9531 51.6L96.7524 52.2008L97.9557 50.6H95.9531V51.6ZM88.6891 61.264L87.8897 60.6632L87.4795 61.209L87.8385 61.7898L88.6891 61.264ZM96.5611 74V75H98.3548L97.4117 73.4742L96.5611 74ZM95.8251 74L96.6762 73.475L89.1562 61.283L88.3051 61.808L87.454 62.333L94.974 74.525L95.8251 74ZM88.3051 61.808L87.5029 61.211L85.4548 63.963L86.2571 64.56L87.0593 65.157L89.1073 62.405L88.3051 61.808ZM86.2571 64.56H85.2571V74H86.2571H87.2571V64.56H86.2571ZM86.2571 74V73H85.6171V74V75H86.2571V74ZM85.6171 74H86.6171V64.56H85.6171H84.6171V74H85.6171ZM85.6171 64.56L86.4149 63.957L84.3349 61.205L83.5371 61.808L82.7393 62.411L84.8193 65.163L85.6171 64.56ZM83.5371 61.808L82.685 61.2847L75.197 73.4767L76.0491 74L76.9012 74.5233L84.3892 62.3313L83.5371 61.808ZM76.0491 74V73H75.3131V74V75H76.0491V74ZM75.3131 74L76.1656 74.5227L83.9736 61.7867L83.1211 61.264L82.2685 60.7413L74.4605 73.4773L75.3131 74ZM83.1211 61.264L83.923 60.6666L76.723 51.0026L75.9211 51.6L75.1192 52.1974L82.3192 61.8614L83.1211 61.264ZM75.9211 51.6V52.6H76.6891V51.6V50.6H75.9211V51.6ZM76.6891 51.6L75.8873 52.1976L82.3513 60.8696L83.1531 60.272L83.9549 59.6744L77.4909 51.0024L76.6891 51.6ZM83.1531 60.272L82.3522 60.8708L84.8162 64.1668L85.6171 63.568L86.418 62.9692L83.954 59.6732L83.1531 60.272ZM85.6171 63.568H86.6171V51.6H85.6171H84.6171V63.568H85.6171ZM85.6171 51.6V52.6H86.2571V51.6V50.6H85.6171V51.6ZM86.2571 51.6H85.2571V63.536H86.2571H87.2571V51.6H86.2571ZM86.2571 63.536L87.0579 64.135L95.9859 52.199L95.1851 51.6L94.3843 51.001L85.4563 62.937L86.2571 63.536ZM95.1851 51.6V52.6H95.9531V51.6V50.6H95.1851V51.6ZM95.9531 51.6L95.1537 50.9992L87.8897 60.6632L88.6891 61.264L89.4884 61.8648L96.7524 52.2008L95.9531 51.6ZM88.6891 61.264L87.8385 61.7898L95.7105 74.5258L96.5611 74L97.4117 73.4742L89.5397 60.7382L88.6891 61.264ZM96.5611 74V73H95.8251V74V75H96.5611V74ZM112.726 51.6V50.6H111.726V51.6H112.726ZM113.366 51.6H114.366V50.6H113.366V51.6ZM113.366 74V75H114.366V74H113.366ZM112.726 74H111.726V75H112.726V74ZM112.726 62.896H113.726V61.896H112.726V62.896ZM103.158 62.896V61.896H102.158V62.896H103.158ZM103.158 74V75H104.158V74H103.158ZM102.518 74H101.518V75H102.518V74ZM102.518 51.6V50.6H101.518V51.6H102.518ZM103.158 51.6H104.158V50.6H103.158V51.6ZM103.158 62.288H102.158V63.288H103.158V62.288ZM112.726 62.288V63.288H113.726V62.288H112.726ZM112.726 51.6V52.6H113.366V51.6V50.6H112.726V51.6ZM113.366 51.6H112.366V74H113.366H114.366V51.6H113.366ZM113.366 74V73H112.726V74V75H113.366V74ZM112.726 74H113.726V62.896H112.726H111.726V74H112.726ZM112.726 62.896V61.896H103.158V62.896V63.896H112.726V62.896ZM103.158 62.896H102.158V74H103.158H104.158V62.896H103.158ZM103.158 74V73H102.518V74V75H103.158V74ZM102.518 74H103.518V51.6H102.518H101.518V74H102.518ZM102.518 51.6V52.6H103.158V51.6V50.6H102.518V51.6ZM103.158 51.6H102.158V62.288H103.158H104.158V51.6H103.158ZM103.158 62.288V63.288H112.726V62.288V61.288H103.158V62.288ZM112.726 62.288H113.726V51.6H112.726H111.726V62.288H112.726ZM121.484 74H120.484V75H121.484V74ZM121.484 51.6V50.6H120.484V51.6H121.484ZM122.124 51.6H123.124V50.6H122.124V51.6ZM122.124 61.328H121.124V62.328H122.124V61.328ZM134.348 74H133.348V75H134.348V74ZM134.348 51.6V50.6H133.348V51.6H134.348ZM134.988 51.6H135.988V50.6H134.988V51.6ZM134.988 74V75H135.988V74H134.988ZM122.124 73.392H121.124V74.392H122.124V73.392ZM122.124 61.936V60.936H121.124V61.936H122.124ZM121.484 74H122.484V51.6H121.484H120.484V74H121.484ZM121.484 51.6V52.6H122.124V51.6V50.6H121.484V51.6ZM122.124 51.6H121.124V61.328H122.124H123.124V51.6H122.124ZM122.124 61.328V62.328H126.124V61.328V60.328H122.124V61.328ZM126.124 61.328V62.328C127.922 62.328 129.127 62.8312 129.893 63.6424C130.668 64.4634 131.14 65.7561 131.14 67.632H132.14H133.14C133.14 65.4439 132.588 63.5846 131.347 62.2696C130.097 60.9448 128.294 60.328 126.124 60.328V61.328ZM132.14 67.632H131.14C131.14 69.5437 130.666 70.8524 129.89 71.6803C129.125 72.497 127.922 73 126.124 73V74V75C128.295 75 130.099 74.383 131.35 73.0477C132.59 71.7236 133.14 69.8483 133.14 67.632H132.14ZM126.124 74V73H121.484V74V75H126.124V74ZM134.348 74H135.348V51.6H134.348H133.348V74H134.348ZM134.348 51.6V52.6H134.988V51.6V50.6H134.348V51.6ZM134.988 51.6H133.988V74H134.988H135.988V51.6H134.988ZM134.988 74V73H134.348V74V75H134.988V74ZM122.124 73.392V74.392H126.124V73.392V72.392H122.124V73.392ZM126.124 73.392V74.392C128.116 74.392 129.773 73.8649 130.914 72.631C132.041 71.4125 132.5 69.6811 132.5 67.632H131.5H130.5C130.5 69.4229 130.095 70.5715 129.446 71.273C128.811 71.9591 127.78 72.392 126.124 72.392V73.392ZM131.5 67.632H132.5C132.5 65.611 132.04 63.8954 130.911 62.6859C129.771 61.463 128.116 60.936 126.124 60.936V61.936V62.936C127.78 62.936 128.814 63.369 129.449 64.0501C130.097 64.7446 130.5 65.877 130.5 67.632H131.5ZM126.124 61.936V60.936H122.124V61.936V62.936H126.124V61.936ZM122.124 61.936H121.124V73.392H122.124H123.124V61.936H122.124ZM152.803 52.208V53.208H153.803V52.208H152.803ZM143.747 52.208V51.208H142.747V52.208H143.747ZM143.747 62.288H142.747V63.288H143.747V62.288ZM152.099 62.288H153.099V61.288H152.099V62.288ZM152.099 62.896V63.896H153.099V62.896H152.099ZM143.747 62.896V61.896H142.747V62.896H143.747ZM143.747 73.392H142.747V74.392H143.747V73.392ZM152.803 73.392H153.803V72.392H152.803V73.392ZM152.803 74V75H153.803V74H152.803ZM143.107 74H142.107V75H143.107V74ZM143.107 51.6V50.6H142.107V51.6H143.107ZM152.803 51.6H153.803V50.6H152.803V51.6ZM152.803 52.208V51.208H143.747V52.208V53.208H152.803V52.208ZM143.747 52.208H142.747V62.288H143.747H144.747V52.208H143.747ZM143.747 62.288V63.288H152.099V62.288V61.288H143.747V62.288ZM152.099 62.288H151.099V62.896H152.099H153.099V62.288H152.099ZM152.099 62.896V61.896H143.747V62.896V63.896H152.099V62.896ZM143.747 62.896H142.747V73.392H143.747H144.747V62.896H143.747ZM143.747 73.392V74.392H152.803V73.392V72.392H143.747V73.392ZM152.803 73.392H151.803V74H152.803H153.803V73.392H152.803ZM152.803 74V73H143.107V74V75H152.803V74ZM143.107 74H144.107V51.6H143.107H142.107V74H143.107ZM143.107 51.6V52.6H152.803V51.6V50.6H143.107V51.6ZM152.803 51.6H151.803V52.208H152.803H153.803V51.6H152.803ZM181.293 51.6H182.293V50.6H181.293V51.6ZM181.293 74V75H182.293V74H181.293ZM180.653 74H179.653V75H180.653V74ZM180.653 52.208H181.653V51.208H180.653V52.208ZM171.085 52.208V51.208H170.085V52.208H171.085ZM171.085 74V75H172.085V74H171.085ZM170.445 74H169.445V75H170.445V74ZM170.445 51.6V50.6H169.445V51.6H170.445ZM181.293 51.6H180.293V74H181.293H182.293V51.6H181.293ZM181.293 74V73H180.653V74V75H181.293V74ZM180.653 74H181.653V52.208H180.653H179.653V74H180.653ZM180.653 52.208V51.208H171.085V52.208V53.208H180.653V52.208ZM171.085 52.208H170.085V74H171.085H172.085V52.208H171.085ZM171.085 74V73H170.445V74V75H171.085V74ZM170.445 74H171.445V51.6H170.445H169.445V74H170.445ZM170.445 51.6V52.6H181.293V51.6V50.6H170.445V51.6ZM194.692 74.352V73.352C193.104 73.352 191.922 72.8751 191.131 72.0373C190.332 71.1924 189.804 69.8451 189.804 67.856H188.804H187.804C187.804 70.1869 188.427 72.0876 189.677 73.4107C190.933 74.7409 192.695 75.352 194.692 75.352V74.352ZM188.804 67.856H189.804V57.776H188.804H187.804V67.856H188.804ZM188.804 57.776H189.804C189.804 55.7691 190.333 54.4137 191.132 53.5654C191.923 52.7248 193.104 52.248 194.692 52.248V51.248V50.248C192.695 50.248 190.932 50.8592 189.675 52.1946C188.426 53.5223 187.804 55.4309 187.804 57.776H188.804ZM194.692 51.248V52.248C196.279 52.248 197.46 52.7248 198.251 53.5654C199.05 54.4137 199.58 55.7691 199.58 57.776H200.58H201.58C201.58 55.4309 200.957 53.5223 199.708 52.1946C198.451 50.8592 196.688 50.248 194.692 50.248V51.248ZM200.58 57.776H199.58V67.856H200.58H201.58V57.776H200.58ZM200.58 67.856H199.58C199.58 69.8451 199.051 71.1924 198.253 72.0373C197.461 72.8751 196.279 73.352 194.692 73.352V74.352V75.352C196.688 75.352 198.45 74.7409 199.707 73.4107C200.956 72.0876 201.58 70.1869 201.58 67.856H200.58ZM194.692 73.744V74.744C196.493 74.744 198.099 74.1984 199.246 72.9707C200.385 71.7525 200.94 70.0028 200.94 67.856H199.94H198.94C198.94 69.6772 198.471 70.8715 197.785 71.6053C197.108 72.3296 196.09 72.744 194.692 72.744V73.744ZM199.94 67.856H200.94V57.776H199.94H198.94V67.856H199.94ZM199.94 57.776H200.94C200.94 55.6151 200.386 53.8576 199.248 52.6347C198.1 51.4018 196.493 50.856 194.692 50.856V51.856V52.856C196.09 52.856 197.107 53.2702 197.784 53.9973C198.47 54.7344 198.94 55.9369 198.94 57.776H199.94ZM194.692 51.856V50.856C192.89 50.856 191.283 51.4018 190.136 52.6347C188.998 53.8576 188.444 55.6151 188.444 57.776H189.444H190.444C190.444 55.9369 190.914 54.7344 191.6 53.9973C192.276 53.2702 193.293 52.856 194.692 52.856V51.856ZM189.444 57.776H188.444V67.856H189.444H190.444V57.776H189.444ZM189.444 67.856H188.444C188.444 70.0028 188.999 71.7525 190.137 72.9707C191.284 74.1984 192.89 74.744 194.692 74.744V73.744V72.744C193.293 72.744 192.275 72.3296 191.598 71.6053C190.913 70.8715 190.444 69.6772 190.444 67.856H189.444ZM216.619 51.6H217.619V50.6H216.619V51.6ZM216.619 52.208V53.208H217.619V52.208H216.619ZM211.403 52.208V51.208H210.403V52.208H211.403ZM211.403 74V75H212.403V74H211.403ZM210.763 74H209.763V75H210.763V74ZM210.763 52.208H211.763V51.208H210.763V52.208ZM205.707 52.208H204.707V53.208H205.707V52.208ZM205.707 51.6V50.6H204.707V51.6H205.707ZM216.619 51.6H215.619V52.208H216.619H217.619V51.6H216.619ZM216.619 52.208V51.208H211.403V52.208V53.208H216.619V52.208ZM211.403 52.208H210.403V74H211.403H212.403V52.208H211.403ZM211.403 74V73H210.763V74V75H211.403V74ZM210.763 74H211.763V52.208H210.763H209.763V74H210.763ZM210.763 52.208V51.208H205.707V52.208V53.208H210.763V52.208ZM205.707 52.208H206.707V51.6H205.707H204.707V52.208H205.707ZM205.707 51.6V52.6H216.619V51.6V50.6H205.707V51.6ZM227.593 74.352V73.352C226.005 73.352 224.823 72.8751 224.032 72.0373C223.234 71.1924 222.705 69.8451 222.705 67.856H221.705H220.705C220.705 70.1869 221.328 72.0876 222.578 73.4107C223.835 74.7409 225.597 75.352 227.593 75.352V74.352ZM221.705 67.856H222.705V57.776H221.705H220.705V67.856H221.705ZM221.705 57.776H222.705C222.705 55.7691 223.235 54.4137 224.033 53.5654C224.824 52.7248 226.005 52.248 227.593 52.248V51.248V50.248C225.596 50.248 223.834 50.8592 222.577 52.1946C221.327 53.5223 220.705 55.4309 220.705 57.776H221.705ZM227.593 51.248V52.248C229.18 52.248 230.362 52.7248 231.153 53.5654C231.951 54.4137 232.481 55.7691 232.481 57.776H233.481H234.481C234.481 55.4309 233.859 53.5223 232.609 52.1946C231.352 50.8592 229.589 50.248 227.593 50.248V51.248ZM233.481 57.776H232.481V67.856H233.481H234.481V57.776H233.481ZM233.481 67.856H232.481C232.481 69.8451 231.952 71.1924 231.154 72.0373C230.363 72.8751 229.181 73.352 227.593 73.352V74.352V75.352C229.589 75.352 231.351 74.7409 232.608 73.4107C233.858 72.0876 234.481 70.1869 234.481 67.856H233.481ZM227.593 73.744V74.744C229.394 74.744 231 74.1984 232.147 72.9707C233.286 71.7525 233.841 70.0028 233.841 67.856H232.841H231.841C231.841 69.6772 231.372 70.8715 230.686 71.6053C230.009 72.3296 228.991 72.744 227.593 72.744V73.744ZM232.841 67.856H233.841V57.776H232.841H231.841V67.856H232.841ZM232.841 57.776H233.841C233.841 55.6151 233.287 53.8576 232.149 52.6347C231.001 51.4018 229.394 50.856 227.593 50.856V51.856V52.856C228.991 52.856 230.008 53.2702 230.685 53.9973C231.371 54.7344 231.841 55.9369 231.841 57.776H232.841ZM227.593 51.856V50.856C225.791 50.856 224.184 51.4018 223.037 52.6347C221.899 53.8576 221.345 55.6151 221.345 57.776H222.345H223.345C223.345 55.9369 223.815 54.7344 224.501 53.9973C225.177 53.2702 226.194 52.856 227.593 52.856V51.856ZM222.345 57.776H221.345V67.856H222.345H223.345V57.776H222.345ZM222.345 67.856H221.345C221.345 70.0028 221.9 71.7525 223.038 72.9707C224.185 74.1984 225.791 74.744 227.593 74.744V73.744V72.744C226.194 72.744 225.176 72.3296 224.499 71.6053C223.814 70.8715 223.345 69.6772 223.345 67.856H222.345ZM238.534 74.224H237.534V75.224H238.534V74.224ZM238.534 73.616V72.616H237.534V73.616H238.534ZM241.158 69.392L240.17 69.2352L240.169 69.2399L241.158 69.392ZM242.342 51.6V50.6H241.389L241.343 51.5522L242.342 51.6ZM250.63 51.6H251.63V50.6H250.63V51.6ZM250.63 74V75H251.63V74H250.63ZM249.99 74H248.99V75H249.99V74ZM249.99 52.208H250.99V51.208H249.99V52.208ZM242.95 52.208V51.208H241.997L241.951 52.1599L242.95 52.208ZM241.766 69.456L240.778 69.3L240.777 69.3056L241.766 69.456ZM238.534 74.224H239.534V73.616H238.534H237.534V74.224H238.534ZM238.534 73.616V74.616C240.073 74.616 240.925 73.3367 241.357 72.3849C241.822 71.3589 242.046 70.1949 242.146 69.5441L241.158 69.392L240.169 69.2399C240.078 69.8371 239.886 70.7851 239.535 71.5591C239.151 72.4073 238.786 72.616 238.534 72.616V73.616ZM241.158 69.392L242.145 69.5488C242.476 67.4656 242.766 63.6561 243.341 51.6478L242.342 51.6L241.343 51.5522C240.766 63.6079 240.48 67.2864 240.17 69.2352L241.158 69.392ZM242.342 51.6V52.6H250.63V51.6V50.6H242.342V51.6ZM250.63 51.6H249.63V74H250.63H251.63V51.6H250.63ZM250.63 74V73H249.99V74V75H250.63V74ZM249.99 74H250.99V52.208H249.99H248.99V74H249.99ZM249.99 52.208V51.208H242.95V52.208V53.208H249.99V52.208ZM242.95 52.208L241.951 52.1599C241.406 63.4774 241.152 66.9341 240.778 69.3L241.766 69.456L242.754 69.612C243.148 67.1139 243.406 63.5306 243.949 52.2561L242.95 52.208ZM241.766 69.456L240.777 69.3056C240.671 70.0055 240.442 71.0775 240.01 71.9476C239.562 72.8498 239.069 73.224 238.534 73.224V74.224V75.224C240.239 75.224 241.249 73.9502 241.802 72.8364C242.37 71.6905 242.637 70.3785 242.754 69.6064L241.766 69.456ZM269.433 74L268.592 74.5399L268.887 75H269.433V74ZM261.593 61.776L262.435 61.2361L261.658 60.0238L260.793 61.176L261.593 61.776ZM259.385 64.72L258.585 64.12L258.385 64.3867V64.72H259.385ZM259.385 74V75H260.385V74H259.385ZM258.745 74H257.745V75H258.745V74ZM258.745 51.6V50.6H257.745V51.6H258.745ZM259.385 51.6H260.385V50.6H259.385V51.6ZM259.385 63.728H258.385V66.6968L260.182 64.333L259.385 63.728ZM268.601 51.6V50.6H268.105L267.805 50.995L268.601 51.6ZM269.401 51.6L270.195 52.2088L271.429 50.6H269.401V51.6ZM262.009 61.232L261.216 60.6232L260.789 61.1796L261.167 61.7705L262.009 61.232ZM270.169 74V75H271.995L271.012 73.4615L270.169 74ZM269.433 74L270.275 73.4601L262.435 61.2361L261.593 61.776L260.752 62.3159L268.592 74.5399L269.433 74ZM261.593 61.776L260.793 61.176L258.585 64.12L259.385 64.72L260.185 65.32L262.393 62.376L261.593 61.776ZM259.385 64.72H258.385V74H259.385H260.385V64.72H259.385ZM259.385 74V73H258.745V74V75H259.385V74ZM258.745 74H259.745V51.6H258.745H257.745V74H258.745ZM258.745 51.6V52.6H259.385V51.6V50.6H258.745V51.6ZM259.385 51.6H258.385V63.728H259.385H260.385V51.6H259.385ZM259.385 63.728L260.182 64.333L269.398 52.205L268.601 51.6L267.805 50.995L258.589 63.123L259.385 63.728ZM268.601 51.6V52.6H269.401V51.6V50.6H268.601V51.6ZM269.401 51.6L268.608 50.9912L261.216 60.6232L262.009 61.232L262.803 61.8408L270.195 52.2088L269.401 51.6ZM262.009 61.232L261.167 61.7705L269.327 74.5385L270.169 74L271.012 73.4615L262.852 60.6935L262.009 61.232ZM270.169 74V73H269.433V74V75H270.169V74ZM276.118 74H275.118V75H276.118V74ZM276.118 51.6V50.6H275.118V51.6H276.118ZM276.758 51.6H277.758V50.6H276.758V51.6ZM276.758 72.592H275.758L277.659 73.0247L276.758 72.592ZM277.878 70.224L278.779 70.6567L278.782 70.6512L277.878 70.224ZM286.678 51.6V50.6H286.044L285.774 51.1728L286.678 51.6ZM287.318 51.6H288.318V50.6H287.318V51.6ZM287.318 74V75H288.318V74H287.318ZM286.678 74H285.678V75H286.678V74ZM286.678 53.008H287.678L285.776 52.5765L286.678 53.008ZM285.622 55.248L284.72 54.8165L284.718 54.8206L285.622 55.248ZM276.758 74V75H277.391L277.662 74.4274L276.758 74ZM276.118 74H277.118V51.6H276.118H275.118V74H276.118ZM276.118 51.6V52.6H276.758V51.6V50.6H276.118V51.6ZM276.758 51.6H275.758V70.608H276.758H277.758V51.6H276.758ZM276.758 70.608H275.758V72.592H276.758H277.758V70.608H276.758ZM276.758 72.592L277.659 73.0247C277.854 72.6202 278.039 72.2243 278.223 71.8329C278.407 71.4403 278.59 71.0522 278.779 70.6567L277.878 70.224L276.976 69.7913C276.782 70.1958 276.596 70.5917 276.413 70.9831C276.228 71.3757 276.046 71.7638 275.856 72.1593L276.758 72.592ZM277.878 70.224L278.782 70.6512L287.582 52.0272L286.678 51.6L285.774 51.1728L276.974 69.7968L277.878 70.224ZM286.678 51.6V52.6H287.318V51.6V50.6H286.678V51.6ZM287.318 51.6H286.318V74H287.318H288.318V51.6H287.318ZM287.318 74V73H286.678V74V75H287.318V74ZM286.678 74H287.678V55.504H286.678H285.678V74H286.678ZM286.678 55.504H287.678V53.008H286.678H285.678V55.504H286.678ZM286.678 53.008L285.776 52.5765C285.598 52.9489 285.42 53.3287 285.244 53.7041C285.068 54.0807 284.894 54.4529 284.72 54.8165L285.622 55.248L286.524 55.6795C286.702 55.3071 286.88 54.9273 287.056 54.5519C287.232 54.1753 287.406 53.8031 287.58 53.4395L286.678 53.008ZM285.622 55.248L284.718 54.8206L275.854 73.5726L276.758 74L277.662 74.4274L286.526 55.6754L285.622 55.248ZM276.758 74V73H276.118V74V75H276.758V74Z" fill="#111111" mask="url(#path-1-outside-1_0_1)"/>
<mask id="path-3-outside-2_0_1" maskUnits="userSpaceOnUse" x="157" y="6" width="141" height="27" fill="black">
<rect fill="white" x="157" y="6" width="141" height="27"/>
<path d="M158.557 7.72727H162.818L170.227 25.8182H170.5L177.909 7.72727H182.17V31H178.83V14.1591H178.614L171.75 30.9659H168.977L162.114 14.1477H161.898V31H158.557V7.72727ZM190.841 31H187.114L195.489 7.72727H199.546L207.921 31H204.194L197.614 11.9545H197.432L190.841 31ZM191.466 21.8864H203.557V24.8409H191.466V21.8864ZM225.388 13.8409C225.266 12.7652 224.766 11.9318 223.888 11.3409C223.009 10.7424 221.903 10.4432 220.569 10.4432C219.615 10.4432 218.789 10.5947 218.092 10.8977C217.395 11.1932 216.853 11.6023 216.467 12.125C216.088 12.6402 215.899 13.2273 215.899 13.8864C215.899 14.4394 216.028 14.9167 216.285 15.3182C216.55 15.7197 216.895 16.0568 217.319 16.3295C217.751 16.5947 218.213 16.8182 218.706 17C219.198 17.1742 219.672 17.3182 220.126 17.4318L222.399 18.0227C223.141 18.2045 223.903 18.4508 224.683 18.7614C225.463 19.072 226.187 19.4811 226.853 19.9886C227.52 20.4962 228.058 21.125 228.467 21.875C228.884 22.625 229.092 23.5227 229.092 24.5682C229.092 25.8864 228.751 27.0568 228.069 28.0795C227.395 29.1023 226.414 29.9091 225.126 30.5C223.846 31.0909 222.297 31.3864 220.478 31.3864C218.736 31.3864 217.228 31.1098 215.956 30.5568C214.683 30.0038 213.687 29.2197 212.967 28.2045C212.247 27.1818 211.85 25.9697 211.774 24.5682H215.297C215.365 25.4091 215.638 26.1098 216.115 26.6705C216.6 27.2235 217.217 27.6364 217.967 27.9091C218.725 28.1742 219.554 28.3068 220.456 28.3068C221.448 28.3068 222.331 28.1515 223.103 27.8409C223.884 27.5227 224.497 27.0833 224.944 26.5227C225.391 25.9545 225.615 25.2917 225.615 24.5341C225.615 23.8447 225.418 23.2803 225.024 22.8409C224.638 22.4015 224.111 22.0379 223.444 21.75C222.785 21.4621 222.039 21.2083 221.206 20.9886L218.456 20.2386C216.592 19.7311 215.115 18.9848 214.024 18C212.941 17.0152 212.399 15.7121 212.399 14.0909C212.399 12.75 212.763 11.5795 213.49 10.5795C214.217 9.57954 215.202 8.80303 216.444 8.25C217.687 7.68939 219.088 7.40909 220.649 7.40909C222.225 7.40909 223.615 7.68561 224.819 8.23864C226.031 8.79167 226.986 9.55303 227.683 10.5227C228.38 11.4848 228.744 12.5909 228.774 13.8409H225.388ZM233.74 10.75V7.72727H251.752V10.75H244.49V31H240.99V10.75H233.74ZM257.332 31V7.72727H271.923V10.75H260.843V17.8409H271.161V20.8523H260.843V27.9773H272.059V31H257.332ZM278.213 31V7.72727H286.509C288.312 7.72727 289.808 8.03788 290.997 8.65909C292.194 9.2803 293.088 10.1402 293.679 11.2386C294.27 12.3295 294.565 13.5909 294.565 15.0227C294.565 16.447 294.266 17.7008 293.668 18.7841C293.077 19.8598 292.183 20.697 290.986 21.2955C289.796 21.8939 288.3 22.1932 286.497 22.1932H280.213V19.1705H286.179C287.315 19.1705 288.24 19.0076 288.952 18.6818C289.671 18.3561 290.198 17.8826 290.531 17.2614C290.865 16.6402 291.031 15.8939 291.031 15.0227C291.031 14.1439 290.861 13.3826 290.52 12.7386C290.187 12.0947 289.66 11.6023 288.94 11.2614C288.228 10.9129 287.293 10.7386 286.134 10.7386H281.724V31H278.213ZM289.702 20.5L295.452 31H291.452L285.815 20.5H289.702Z"/>
</mask>
<path d="M158.557 7.72727H162.818L170.227 25.8182H170.5L177.909 7.72727H182.17V31H178.83V14.1591H178.614L171.75 30.9659H168.977L162.114 14.1477H161.898V31H158.557V7.72727ZM190.841 31H187.114L195.489 7.72727H199.546L207.921 31H204.194L197.614 11.9545H197.432L190.841 31ZM191.466 21.8864H203.557V24.8409H191.466V21.8864ZM225.388 13.8409C225.266 12.7652 224.766 11.9318 223.888 11.3409C223.009 10.7424 221.903 10.4432 220.569 10.4432C219.615 10.4432 218.789 10.5947 218.092 10.8977C217.395 11.1932 216.853 11.6023 216.467 12.125C216.088 12.6402 215.899 13.2273 215.899 13.8864C215.899 14.4394 216.028 14.9167 216.285 15.3182C216.55 15.7197 216.895 16.0568 217.319 16.3295C217.751 16.5947 218.213 16.8182 218.706 17C219.198 17.1742 219.672 17.3182 220.126 17.4318L222.399 18.0227C223.141 18.2045 223.903 18.4508 224.683 18.7614C225.463 19.072 226.187 19.4811 226.853 19.9886C227.52 20.4962 228.058 21.125 228.467 21.875C228.884 22.625 229.092 23.5227 229.092 24.5682C229.092 25.8864 228.751 27.0568 228.069 28.0795C227.395 29.1023 226.414 29.9091 225.126 30.5C223.846 31.0909 222.297 31.3864 220.478 31.3864C218.736 31.3864 217.228 31.1098 215.956 30.5568C214.683 30.0038 213.687 29.2197 212.967 28.2045C212.247 27.1818 211.85 25.9697 211.774 24.5682H215.297C215.365 25.4091 215.638 26.1098 216.115 26.6705C216.6 27.2235 217.217 27.6364 217.967 27.9091C218.725 28.1742 219.554 28.3068 220.456 28.3068C221.448 28.3068 222.331 28.1515 223.103 27.8409C223.884 27.5227 224.497 27.0833 224.944 26.5227C225.391 25.9545 225.615 25.2917 225.615 24.5341C225.615 23.8447 225.418 23.2803 225.024 22.8409C224.638 22.4015 224.111 22.0379 223.444 21.75C222.785 21.4621 222.039 21.2083 221.206 20.9886L218.456 20.2386C216.592 19.7311 215.115 18.9848 214.024 18C212.941 17.0152 212.399 15.7121 212.399 14.0909C212.399 12.75 212.763 11.5795 213.49 10.5795C214.217 9.57954 215.202 8.80303 216.444 8.25C217.687 7.68939 219.088 7.40909 220.649 7.40909C222.225 7.40909 223.615 7.68561 224.819 8.23864C226.031 8.79167 226.986 9.55303 227.683 10.5227C228.38 11.4848 228.744 12.5909 228.774 13.8409H225.388ZM233.74 10.75V7.72727H251.752V10.75H244.49V31H240.99V10.75H233.74ZM257.332 31V7.72727H271.923V10.75H260.843V17.8409H271.161V20.8523H260.843V27.9773H272.059V31H257.332ZM278.213 31V7.72727H286.509C288.312 7.72727 289.808 8.03788 290.997 8.65909C292.194 9.2803 293.088 10.1402 293.679 11.2386C294.27 12.3295 294.565 13.5909 294.565 15.0227C294.565 16.447 294.266 17.7008 293.668 18.7841C293.077 19.8598 292.183 20.697 290.986 21.2955C289.796 21.8939 288.3 22.1932 286.497 22.1932H280.213V19.1705H286.179C287.315 19.1705 288.24 19.0076 288.952 18.6818C289.671 18.3561 290.198 17.8826 290.531 17.2614C290.865 16.6402 291.031 15.8939 291.031 15.0227C291.031 14.1439 290.861 13.3826 290.52 12.7386C290.187 12.0947 289.66 11.6023 288.94 11.2614C288.228 10.9129 287.293 10.7386 286.134 10.7386H281.724V31H278.213ZM289.702 20.5L295.452 31H291.452L285.815 20.5H289.702Z" fill="#FECA00"/>
<path d="M158.557 7.72727V6.72727H157.557V7.72727H158.557ZM162.818 7.72727L163.744 7.34828L163.489 6.72727H162.818V7.72727ZM170.227 25.8182L169.302 26.1972L169.556 26.8182H170.227V25.8182ZM170.5 25.8182V26.8182H171.171L171.425 26.1972L170.5 25.8182ZM177.909 7.72727V6.72727H177.238L176.984 7.34828L177.909 7.72727ZM182.17 7.72727H183.17V6.72727H182.17V7.72727ZM182.17 31V32H183.17V31H182.17ZM178.83 31H177.83V32H178.83V31ZM178.83 14.1591H179.83V13.1591H178.83V14.1591ZM178.614 14.1591V13.1591H177.942L177.688 13.781L178.614 14.1591ZM171.75 30.9659V31.9659H172.422L172.676 31.344L171.75 30.9659ZM168.977 30.9659L168.051 31.3438L168.305 31.9659H168.977V30.9659ZM162.114 14.1477L163.04 13.7699L162.786 13.1477H162.114V14.1477ZM161.898 14.1477V13.1477H160.898V14.1477H161.898ZM161.898 31V32H162.898V31H161.898ZM158.557 31H157.557V32H158.557V31ZM158.557 7.72727V8.72727H162.818V7.72727V6.72727H158.557V7.72727ZM162.818 7.72727L161.893 8.10627L169.302 26.1972L170.227 25.8182L171.153 25.4392L163.744 7.34828L162.818 7.72727ZM170.227 25.8182V26.8182H170.5V25.8182V24.8182H170.227V25.8182ZM170.5 25.8182L171.425 26.1972L178.834 8.10627L177.909 7.72727L176.984 7.34828L169.575 25.4392L170.5 25.8182ZM177.909 7.72727V8.72727H182.17V7.72727V6.72727H177.909V7.72727ZM182.17 7.72727H181.17V31H182.17H183.17V7.72727H182.17ZM182.17 31V30H178.83V31V32H182.17V31ZM178.83 31H179.83V14.1591H178.83H177.83V31H178.83ZM178.83 14.1591V13.1591H178.614V14.1591V15.1591H178.83V14.1591ZM178.614 14.1591L177.688 13.781L170.824 30.5878L171.75 30.9659L172.676 31.344L179.539 14.5372L178.614 14.1591ZM171.75 30.9659V29.9659H168.977V30.9659V31.9659H171.75V30.9659ZM168.977 30.9659L169.903 30.5881L163.04 13.7699L162.114 14.1477L161.188 14.5256L168.051 31.3438L168.977 30.9659ZM162.114 14.1477V13.1477H161.898V14.1477V15.1477H162.114V14.1477ZM161.898 14.1477H160.898V31H161.898H162.898V14.1477H161.898ZM161.898 31V30H158.557V31V32H161.898V31ZM158.557 31H159.557V7.72727H158.557H157.557V31H158.557ZM190.841 31V32H191.554L191.786 31.327L190.841 31ZM187.114 31L186.173 30.6614L185.692 32H187.114V31ZM195.489 7.72727V6.72727H194.786L194.548 7.38867L195.489 7.72727ZM199.546 7.72727L200.487 7.38867L200.249 6.72727H199.546V7.72727ZM207.921 31V32H209.344L208.862 30.6614L207.921 31ZM204.194 31L203.249 31.3265L203.481 32H204.194V31ZM197.614 11.9545L198.559 11.628L198.327 10.9545H197.614V11.9545ZM197.432 11.9545V10.9545H196.72L196.487 11.6275L197.432 11.9545ZM191.466 21.8864V20.8864H190.466V21.8864H191.466ZM203.557 21.8864H204.557V20.8864H203.557V21.8864ZM203.557 24.8409V25.8409H204.557V24.8409H203.557ZM191.466 24.8409H190.466V25.8409H191.466V24.8409ZM190.841 31V30H187.114V31V32H190.841V31ZM187.114 31L188.055 31.3386L196.43 8.06588L195.489 7.72727L194.548 7.38867L186.173 30.6614L187.114 31ZM195.489 7.72727V8.72727H199.546V7.72727V6.72727H195.489V7.72727ZM199.546 7.72727L198.605 8.06588L206.98 31.3386L207.921 31L208.862 30.6614L200.487 7.38867L199.546 7.72727ZM207.921 31V30H204.194V31V32H207.921V31ZM204.194 31L205.139 30.6735L198.559 11.628L197.614 11.9545L196.669 12.2811L203.249 31.3265L204.194 31ZM197.614 11.9545V10.9545H197.432V11.9545V12.9545H197.614V11.9545ZM197.432 11.9545L196.487 11.6275L189.896 30.673L190.841 31L191.786 31.327L198.377 12.2816L197.432 11.9545ZM191.466 21.8864V22.8864H203.557V21.8864V20.8864H191.466V21.8864ZM203.557 21.8864H202.557V24.8409H203.557H204.557V21.8864H203.557ZM203.557 24.8409V23.8409H191.466V24.8409V25.8409H203.557V24.8409ZM191.466 24.8409H192.466V21.8864H191.466H190.466V24.8409H191.466ZM225.387 13.8409L224.394 13.9529L224.494 14.8409H225.387V13.8409ZM223.887 11.3409L223.325 12.1675L223.33 12.1707L223.887 11.3409ZM218.092 10.8977L218.482 11.8185L218.491 11.8148L218.092 10.8977ZM216.467 12.125L215.663 11.5306L215.661 11.5326L216.467 12.125ZM216.285 15.3182L215.443 15.8582L215.451 15.8692L216.285 15.3182ZM217.319 16.3295L216.779 17.1707L216.787 17.1763L216.796 17.1817L217.319 16.3295ZM218.706 17L218.359 17.9382L218.372 17.9427L218.706 17ZM220.126 17.4318L220.378 16.464L220.369 16.4617L220.126 17.4318ZM222.399 18.0227L222.147 18.9905L222.154 18.9923L222.161 18.994L222.399 18.0227ZM228.467 21.875L227.589 22.3539L227.593 22.3606L228.467 21.875ZM228.069 28.0795L227.237 27.5248L227.234 27.5291L228.069 28.0795ZM225.126 30.5L224.709 29.5911L224.707 29.592L225.126 30.5ZM215.956 30.5568L216.354 29.6397V29.6397L215.956 30.5568ZM212.967 28.2045L212.149 28.78L212.151 28.7829L212.967 28.2045ZM211.774 24.5682V23.5682H210.718L210.775 24.6222L211.774 24.5682ZM215.297 24.5682L216.293 24.4874L216.219 23.5682H215.297V24.5682ZM216.115 26.6705L215.353 27.3187L215.358 27.3242L215.363 27.3297L216.115 26.6705ZM217.967 27.9091L217.625 28.849L217.637 28.8529L217.967 27.9091ZM223.103 27.8409L223.476 28.7688L223.481 28.7669L223.103 27.8409ZM224.944 26.5227L225.726 27.1461L225.73 27.141L224.944 26.5227ZM225.024 22.8409L224.273 23.5013L224.279 23.5085L225.024 22.8409ZM223.444 21.75L223.044 22.6664L223.048 22.6681L223.444 21.75ZM221.206 20.9886L220.943 21.9534L220.951 21.9556L221.206 20.9886ZM218.456 20.2386L218.719 19.2739L218.718 19.2738L218.456 20.2386ZM214.024 18L213.351 18.7399L213.354 18.7423L214.024 18ZM213.49 10.5795L212.681 9.99137V9.99137L213.49 10.5795ZM216.444 8.25L216.851 9.16359L216.856 9.1615L216.444 8.25ZM224.819 8.23864L224.402 9.14743L224.404 9.14842L224.819 8.23864ZM227.683 10.5227L226.871 11.1064L226.873 11.1094L227.683 10.5227ZM228.774 13.8409V14.8409H229.798L229.774 13.8167L228.774 13.8409ZM225.387 13.8409L226.381 13.7289C226.228 12.369 225.574 11.2699 224.445 10.5111L223.887 11.3409L223.33 12.1707C223.959 12.5937 224.305 13.1613 224.394 13.9529L225.387 13.8409ZM223.887 11.3409L224.45 10.5144C223.368 9.77715 222.052 9.44318 220.569 9.44318V10.4432V11.4432C221.753 11.4432 222.65 11.7077 223.325 12.1674L223.887 11.3409ZM220.569 10.4432V9.44318C219.512 9.44318 218.544 9.61084 217.693 9.98066L218.092 10.8977L218.491 11.8148C219.034 11.5786 219.718 11.4432 220.569 11.4432V10.4432ZM218.092 10.8977L217.702 9.97704C216.868 10.3307 216.172 10.8419 215.663 11.5306L216.467 12.125L217.271 12.7194C217.535 12.3627 217.923 12.0557 218.482 11.8184L218.092 10.8977ZM216.467 12.125L215.661 11.5326C215.152 12.225 214.899 13.0212 214.899 13.8864H215.899H216.899C216.899 13.4334 217.024 13.0553 217.273 12.7174L216.467 12.125ZM215.899 13.8864H214.899C214.899 14.5997 215.067 15.2711 215.444 15.8581L216.285 15.3182L217.127 14.7782C216.988 14.5622 216.899 14.2791 216.899 13.8864H215.899ZM216.285 15.3182L215.451 15.8692C215.796 16.3924 216.243 16.8265 216.779 17.1707L217.319 16.3295L217.86 15.4884C217.547 15.2872 217.305 15.047 217.12 14.7671L216.285 15.3182ZM217.319 16.3295L216.796 17.1817C217.286 17.4825 217.807 17.7343 218.359 17.9381L218.706 17L219.052 16.0619C218.619 15.902 218.216 15.7069 217.843 15.4774L217.319 16.3295ZM218.706 17L218.372 17.9427C218.891 18.1264 219.395 18.2798 219.884 18.402L220.126 17.4318L220.369 16.4617C219.948 16.3565 219.505 16.2221 219.039 16.0573L218.706 17ZM220.126 17.4318L219.875 18.3996L222.147 18.9905L222.399 18.0227L222.65 17.0549L220.378 16.464L220.126 17.4318ZM222.399 18.0227L222.161 18.994C222.854 19.1638 223.572 19.3953 224.313 19.6905L224.683 18.7614L225.053 17.8323C224.234 17.5062 223.428 17.2453 222.637 17.0514L222.399 18.0227ZM224.683 18.7614L224.313 19.6905C225.009 19.9676 225.653 20.3318 226.248 20.7843L226.853 19.9886L227.459 19.193C226.72 18.6303 225.917 18.1764 225.053 17.8323L224.683 18.7614ZM226.853 19.9886L226.248 20.7843C226.8 21.2049 227.246 21.7249 227.589 22.3539L228.467 21.875L229.345 21.3961C228.87 20.5251 228.24 19.7875 227.459 19.193L226.853 19.9886ZM228.467 21.875L227.593 22.3606C227.911 22.9329 228.092 23.6558 228.092 24.5682H229.092H230.092C230.092 23.3897 229.857 22.3171 229.341 21.3894L228.467 21.875ZM229.092 24.5682H228.092C228.092 25.7039 227.802 26.6784 227.237 27.5248L228.069 28.0795L228.901 28.6342C229.701 27.4352 230.092 26.0688 230.092 24.5682H229.092ZM228.069 28.0795L227.234 27.5291C226.678 28.3724 225.854 29.0658 224.709 29.5911L225.126 30.5L225.543 31.4089C226.974 30.7524 228.112 29.8321 228.904 28.63L228.069 28.0795ZM225.126 30.5L224.707 29.592C223.59 30.1074 222.192 30.3864 220.478 30.3864V31.3864V32.3864C222.401 32.3864 224.101 32.0744 225.545 31.408L225.126 30.5ZM220.478 31.3864V30.3864C218.839 30.3864 217.473 30.126 216.354 29.6397L215.956 30.5568L215.557 31.474C216.983 32.0937 218.633 32.3864 220.478 32.3864V31.3864ZM215.956 30.5568L216.354 29.6397C215.229 29.1508 214.385 28.4758 213.783 27.6262L212.967 28.2045L212.151 28.7829C212.988 29.9636 214.137 30.8568 215.557 31.474L215.956 30.5568ZM212.967 28.2045L213.785 27.6291C213.186 26.778 212.839 25.752 212.772 24.5142L211.774 24.5682L210.775 24.6222C210.86 26.1874 211.309 27.5856 212.149 28.78L212.967 28.2045ZM211.774 24.5682V25.5682H215.297V24.5682V23.5682H211.774V24.5682ZM215.297 24.5682L214.3 24.649C214.382 25.6674 214.721 26.5757 215.353 27.3187L216.115 26.6705L216.876 26.0222C216.554 25.644 216.347 25.1508 216.293 24.4874L215.297 24.5682ZM216.115 26.6705L215.363 27.3297C215.968 28.0199 216.731 28.5237 217.625 28.8489L217.967 27.9091L218.309 26.9693C217.703 26.7491 217.231 26.4271 216.867 26.0112L216.115 26.6705ZM217.967 27.9091L217.637 28.8529C218.513 29.1595 219.455 29.3068 220.456 29.3068V28.3068V27.3068C219.653 27.3068 218.937 27.1889 218.297 26.9652L217.967 27.9091ZM220.456 28.3068V29.3068C221.552 29.3068 222.565 29.1352 223.476 28.7688L223.103 27.8409L222.73 26.9131C222.097 27.1678 221.344 27.3068 220.456 27.3068V28.3068ZM223.103 27.8409L223.481 28.7669C224.392 28.3955 225.155 27.8623 225.726 27.1461L224.944 26.5227L224.162 25.8993C223.839 26.3044 223.376 26.65 222.726 26.9149L223.103 27.8409ZM224.944 26.5227L225.73 27.141C226.323 26.3877 226.615 25.5044 226.615 24.5341H225.615H224.615C224.615 25.079 224.46 25.5214 224.158 25.9044L224.944 26.5227ZM225.615 24.5341H226.615C226.615 23.6423 226.354 22.8265 225.768 22.1734L225.024 22.8409L224.279 23.5085C224.482 23.7341 224.615 24.0471 224.615 24.5341H225.615ZM225.024 22.8409L225.775 22.1806C225.27 21.6067 224.611 21.1647 223.841 20.8319L223.444 21.75L223.048 22.6681C223.611 22.9111 224.005 23.1964 224.273 23.5012L225.024 22.8409ZM223.444 21.75L223.845 20.8336C223.13 20.5216 222.334 20.252 221.461 20.0217L221.206 20.9886L220.951 21.9556C221.744 22.1647 222.44 22.4026 223.044 22.6664L223.444 21.75ZM221.206 20.9886L221.469 20.0239L218.719 19.2739L218.456 20.2386L218.193 21.2034L220.943 21.9534L221.206 20.9886ZM218.456 20.2386L218.718 19.2738C216.96 18.795 215.638 18.1097 214.694 17.2577L214.024 18L213.354 18.7423C214.592 19.86 216.224 20.6671 218.193 21.2035L218.456 20.2386ZM214.024 18L214.697 17.2601C213.845 16.4863 213.399 15.4641 213.399 14.0909H212.399H211.399C211.399 15.9602 212.036 17.544 213.351 18.7399L214.024 18ZM212.399 14.0909H213.399C213.399 12.9425 213.706 11.9822 214.299 11.1677L213.49 10.5795L212.681 9.99137C211.819 11.1769 211.399 12.5575 211.399 14.0909H212.399ZM213.49 10.5795L214.299 11.1677C214.913 10.3234 215.752 9.6526 216.851 9.16358L216.444 8.25L216.038 7.33642C214.651 7.95346 213.522 8.83564 212.681 9.99137L213.49 10.5795ZM216.444 8.25L216.856 9.1615C217.951 8.66711 219.21 8.40909 220.649 8.40909V7.40909V6.40909C218.967 6.40909 217.422 6.71168 216.033 7.3385L216.444 8.25ZM220.649 7.40909V8.40909C222.107 8.40909 223.351 8.66477 224.402 9.14743L224.819 8.23864L225.237 7.32984C223.879 6.70644 222.342 6.40909 220.649 6.40909V7.40909ZM224.819 8.23864L224.404 9.14842C225.477 9.6377 226.287 10.2939 226.871 11.1064L227.683 10.5227L228.495 9.93909C227.685 8.81214 226.586 7.94563 225.234 7.32886L224.819 8.23864ZM227.683 10.5227L226.873 11.1094C227.445 11.8987 227.748 12.8063 227.774 13.8651L228.774 13.8409L229.774 13.8167C229.739 12.3755 229.315 11.071 228.493 9.93607L227.683 10.5227ZM228.774 13.8409V12.8409H225.387V13.8409V14.8409H228.774V13.8409ZM233.74 10.75H232.74V11.75H233.74V10.75ZM233.74 7.72727V6.72727H232.74V7.72727H233.74ZM251.752 7.72727H252.752V6.72727H251.752V7.72727ZM251.752 10.75V11.75H252.752V10.75H251.752ZM244.49 10.75V9.75H243.49V10.75H244.49ZM244.49 31V32H245.49V31H244.49ZM240.99 31H239.99V32H240.99V31ZM240.99 10.75H241.99V9.75H240.99V10.75ZM233.74 10.75H234.74V7.72727H233.74H232.74V10.75H233.74ZM233.74 7.72727V8.72727H251.752V7.72727V6.72727H233.74V7.72727ZM251.752 7.72727H250.752V10.75H251.752H252.752V7.72727H251.752ZM251.752 10.75V9.75H244.49V10.75V11.75H251.752V10.75ZM244.49 10.75H243.49V31H244.49H245.49V10.75H244.49ZM244.49 31V30H240.99V31V32H244.49V31ZM240.99 31H241.99V10.75H240.99H239.99V31H240.99ZM240.99 10.75V9.75H233.74V10.75V11.75H240.99V10.75ZM257.332 31H256.332V32H257.332V31ZM257.332 7.72727V6.72727H256.332V7.72727H257.332ZM271.923 7.72727H272.923V6.72727H271.923V7.72727ZM271.923 10.75V11.75H272.923V10.75H271.923ZM260.843 10.75V9.75H259.843V10.75H260.843ZM260.843 17.8409H259.843V18.8409H260.843V17.8409ZM271.161 17.8409H272.161V16.8409H271.161V17.8409ZM271.161 20.8523V21.8523H272.161V20.8523H271.161ZM260.843 20.8523V19.8523H259.843V20.8523H260.843ZM260.843 27.9773H259.843V28.9773H260.843V27.9773ZM272.059 27.9773H273.059V26.9773H272.059V27.9773ZM272.059 31V32H273.059V31H272.059ZM257.332 31H258.332V7.72727H257.332H256.332V31H257.332ZM257.332 7.72727V8.72727H271.923V7.72727V6.72727H257.332V7.72727ZM271.923 7.72727H270.923V10.75H271.923H272.923V7.72727H271.923ZM271.923 10.75V9.75H260.843V10.75V11.75H271.923V10.75ZM260.843 10.75H259.843V17.8409H260.843H261.843V10.75H260.843ZM260.843 17.8409V18.8409H271.161V17.8409V16.8409H260.843V17.8409ZM271.161 17.8409H270.161V20.8523H271.161H272.161V17.8409H271.161ZM271.161 20.8523V19.8523H260.843V20.8523V21.8523H271.161V20.8523ZM260.843 20.8523H259.843V27.9773H260.843H261.843V20.8523H260.843ZM260.843 27.9773V28.9773H272.059V27.9773V26.9773H260.843V27.9773ZM272.059 27.9773H271.059V31H272.059H273.059V27.9773H272.059ZM272.059 31V30H257.332V31V32H272.059V31ZM278.213 31H277.213V32H278.213V31ZM278.213 7.72727V6.72727H277.213V7.72727H278.213ZM290.997 8.65909L290.534 9.54548L290.537 9.54667L290.997 8.65909ZM293.679 11.2386L292.798 11.7124L292.8 11.7149L293.679 11.2386ZM293.668 18.7841L292.792 18.3005L292.791 18.3026L293.668 18.7841ZM290.986 21.2955L290.539 20.401L290.536 20.4022L290.986 21.2955ZM280.213 22.1932H279.213V23.1932H280.213V22.1932ZM280.213 19.1705V18.1705H279.213V19.1705H280.213ZM288.952 18.6818L288.539 17.7708L288.536 17.7724L288.952 18.6818ZM290.52 12.7386L289.632 13.1984L289.636 13.2065L290.52 12.7386ZM288.94 11.2614L288.501 12.1597L288.512 12.1651L288.94 11.2614ZM281.724 10.7386V9.73864H280.724V10.7386H281.724ZM281.724 31V32H282.724V31H281.724ZM289.702 20.5L290.579 20.0197L290.294 19.5H289.702V20.5ZM295.452 31V32H297.139L296.329 30.5197L295.452 31ZM291.452 31L290.571 31.473L290.854 32H291.452V31ZM285.815 20.5V19.5H284.144L284.934 20.973L285.815 20.5ZM278.213 31H279.213V7.72727H278.213H277.213V31H278.213ZM278.213 7.72727V8.72727H286.509V7.72727V6.72727H278.213V7.72727ZM286.509 7.72727V8.72727C288.203 8.72727 289.528 9.02008 290.534 9.54547L290.997 8.65909L291.46 7.77271C290.087 7.05567 288.42 6.72727 286.509 6.72727V7.72727ZM290.997 8.65909L290.537 9.54667C291.57 10.0832 292.31 10.8054 292.798 11.7124L293.679 11.2386L294.56 10.7649C293.866 9.47489 292.818 8.47743 291.458 7.77151L290.997 8.65909ZM293.679 11.2386L292.8 11.7149C293.3 12.6384 293.565 13.7314 293.565 15.0227H294.565H295.565C295.565 13.4504 295.24 12.0207 294.558 10.7624L293.679 11.2386ZM294.565 15.0227H293.565C293.565 16.3036 293.297 17.3863 292.792 18.3005L293.668 18.7841L294.543 19.2677C295.235 18.0153 295.565 16.5904 295.565 15.0227H294.565ZM293.668 18.7841L292.791 18.3026C292.307 19.1842 291.571 19.8848 290.539 20.401L290.986 21.2955L291.433 22.1899C292.794 21.5091 293.846 20.5355 294.544 19.2655L293.668 18.7841ZM290.986 21.2955L290.536 20.4022C289.527 20.9102 288.197 21.1932 286.497 21.1932V22.1932V23.1932C288.404 23.1932 290.066 22.8777 291.435 22.1887L290.986 21.2955ZM286.497 22.1932V21.1932H280.213V22.1932V23.1932H286.497V22.1932ZM280.213 22.1932H281.213V19.1705H280.213H279.213V22.1932H280.213ZM280.213 19.1705V20.1705H286.179V19.1705V18.1705H280.213V19.1705ZM286.179 19.1705V20.1705C287.399 20.1705 288.48 19.9973 289.368 19.5912L288.952 18.6818L288.536 17.7724C287.999 18.0178 287.231 18.1705 286.179 18.1705V19.1705ZM288.952 18.6818L289.364 19.5928C290.259 19.188 290.963 18.5722 291.412 17.7342L290.531 17.2614L289.65 16.7885C289.433 17.1929 289.084 17.5241 288.539 17.7708L288.952 18.6818ZM290.531 17.2614L291.412 17.7342C291.84 16.9372 292.031 16.0206 292.031 15.0227H291.031H290.031C290.031 15.7673 289.889 16.3431 289.65 16.7885L290.531 17.2614ZM291.031 15.0227H292.031C292.031 14.0142 291.835 13.0857 291.404 12.2707L290.52 12.7386L289.636 13.2065C289.886 13.6795 290.031 14.2737 290.031 15.0227H291.031ZM290.52 12.7386L291.408 12.2789C290.964 11.4214 290.265 10.7825 289.368 10.3576L288.94 11.2614L288.512 12.1651C289.055 12.4221 289.409 12.768 289.632 13.1983L290.52 12.7386ZM288.94 11.2614L289.38 10.3631C288.483 9.92403 287.38 9.73864 286.134 9.73864V10.7386V11.7386C287.205 11.7386 287.974 11.9017 288.501 12.1596L288.94 11.2614ZM286.134 10.7386V9.73864H281.724V10.7386V11.7386H286.134V10.7386ZM281.724 10.7386H280.724V31H281.724H282.724V10.7386H281.724ZM281.724 31V30H278.213V31V32H281.724V31ZM289.702 20.5L288.825 20.9803L294.575 31.4803L295.452 31L296.329 30.5197L290.579 20.0197L289.702 20.5ZM295.452 31V30H291.452V31V32H295.452V31ZM291.452 31L292.333 30.527L286.696 20.027L285.815 20.5L284.934 20.973L290.571 31.473L291.452 31ZM285.815 20.5V21.5H289.702V20.5V19.5H285.815V20.5Z" fill="#FECA00" mask="url(#path-3-outside-2_0_1)"/>
<mask id="path-5-outside-3_0_1" maskUnits="userSpaceOnUse" x="1" y="6" width="138" height="27" fill="black">
<rect fill="white" x="1" y="6" width="138" height="27"/>
<path d="M10.0909 31H2.55682V7.72727H10.3295C12.6098 7.72727 14.5682 8.19318 16.2045 9.125C17.8409 10.0492 19.0947 11.3788 19.9659 13.1136C20.8447 14.8409 21.2841 16.9129 21.2841 19.3295C21.2841 21.7538 20.8409 23.8371 19.9545 25.5795C19.0758 27.322 17.803 28.6629 16.1364 29.6023C14.4697 30.5341 12.4545 31 10.0909 31ZM6.06818 27.9318H9.89773C11.6705 27.9318 13.1439 27.5985 14.3182 26.9318C15.4924 26.2576 16.3712 25.2841 16.9545 24.0114C17.5379 22.7311 17.8295 21.1705 17.8295 19.3295C17.8295 17.5038 17.5379 15.9545 16.9545 14.6818C16.3788 13.4091 15.5189 12.4432 14.375 11.7841C13.2311 11.125 11.8106 10.7955 10.1136 10.7955H6.06818V27.9318ZM27.5706 31V7.72727H42.1615V10.75H31.0819V17.8409H41.4001V20.8523H31.0819V27.9773H42.2978V31H27.5706ZM68.1014 15.2955H64.5559C64.4195 14.5379 64.1658 13.8712 63.7945 13.2955C63.4233 12.7197 62.9688 12.2311 62.4309 11.8295C61.893 11.428 61.2908 11.125 60.6241 10.9205C59.965 10.7159 59.2642 10.6136 58.5218 10.6136C57.1809 10.6136 55.9802 10.9508 54.9195 11.625C53.8665 12.2992 53.0332 13.2879 52.4195 14.5909C51.8135 15.8939 51.5105 17.4848 51.5105 19.3636C51.5105 21.2576 51.8135 22.8561 52.4195 24.1591C53.0332 25.4621 53.8703 26.447 54.9309 27.1136C55.9915 27.7803 57.1847 28.1136 58.5105 28.1136C59.2453 28.1136 59.9423 28.0152 60.6014 27.8182C61.268 27.6136 61.8703 27.3144 62.4082 26.9205C62.9461 26.5265 63.4006 26.0455 63.7718 25.4773C64.1506 24.9015 64.412 24.2424 64.5559 23.5L68.1014 23.5114C67.912 24.6553 67.5445 25.7083 66.9991 26.6705C66.4612 27.625 65.768 28.4508 64.9195 29.1477C64.0786 29.8371 63.1165 30.3712 62.0332 30.75C60.9498 31.1288 59.768 31.3182 58.4877 31.3182C56.4726 31.3182 54.6771 30.8409 53.1014 29.8864C51.5256 28.9242 50.2832 27.5492 49.3741 25.7614C48.4726 23.9735 48.0218 21.8409 48.0218 19.3636C48.0218 16.8788 48.4764 14.7462 49.3855 12.9659C50.2945 11.178 51.537 9.80682 53.1127 8.85227C54.6885 7.89015 56.4802 7.40909 58.4877 7.40909C59.7226 7.40909 60.8741 7.58712 61.9423 7.94318C63.018 8.29167 63.9839 8.80682 64.84 9.48864C65.6961 10.1629 66.4044 10.9886 66.965 11.9659C67.5256 12.9356 67.9044 14.0455 68.1014 15.2955ZM74.2231 31V7.72727H77.7344V18.8409H78.0185L87.7799 7.72727H92.2003L82.814 18.2045L92.2344 31H88.0072L80.4844 20.6023L77.7344 23.7614V31H74.2231ZM97.3931 31V7.72727H111.984V10.75H100.904V17.8409H111.223V20.8523H100.904V27.9773H112.12V31H97.3931ZM137.378 7.72727V31H134.151L122.322 13.9318H122.106V31H118.594V7.72727H121.844L133.685 24.8182H133.901V7.72727H137.378Z"/>
</mask>
<path d="M10.0909 31H2.55682V7.72727H10.3295C12.6098 7.72727 14.5682 8.19318 16.2045 9.125C17.8409 10.0492 19.0947 11.3788 19.9659 13.1136C20.8447 14.8409 21.2841 16.9129 21.2841 19.3295C21.2841 21.7538 20.8409 23.8371 19.9545 25.5795C19.0758 27.322 17.803 28.6629 16.1364 29.6023C14.4697 30.5341 12.4545 31 10.0909 31ZM6.06818 27.9318H9.89773C11.6705 27.9318 13.1439 27.5985 14.3182 26.9318C15.4924 26.2576 16.3712 25.2841 16.9545 24.0114C17.5379 22.7311 17.8295 21.1705 17.8295 19.3295C17.8295 17.5038 17.5379 15.9545 16.9545 14.6818C16.3788 13.4091 15.5189 12.4432 14.375 11.7841C13.2311 11.125 11.8106 10.7955 10.1136 10.7955H6.06818V27.9318ZM27.5706 31V7.72727H42.1615V10.75H31.0819V17.8409H41.4001V20.8523H31.0819V27.9773H42.2978V31H27.5706ZM68.1014 15.2955H64.5559C64.4195 14.5379 64.1658 13.8712 63.7945 13.2955C63.4233 12.7197 62.9688 12.2311 62.4309 11.8295C61.893 11.428 61.2908 11.125 60.6241 10.9205C59.965 10.7159 59.2642 10.6136 58.5218 10.6136C57.1809 10.6136 55.9802 10.9508 54.9195 11.625C53.8665 12.2992 53.0332 13.2879 52.4195 14.5909C51.8135 15.8939 51.5105 17.4848 51.5105 19.3636C51.5105 21.2576 51.8135 22.8561 52.4195 24.1591C53.0332 25.4621 53.8703 26.447 54.9309 27.1136C55.9915 27.7803 57.1847 28.1136 58.5105 28.1136C59.2453 28.1136 59.9423 28.0152 60.6014 27.8182C61.268 27.6136 61.8703 27.3144 62.4082 26.9205C62.9461 26.5265 63.4006 26.0455 63.7718 25.4773C64.1506 24.9015 64.412 24.2424 64.5559 23.5L68.1014 23.5114C67.912 24.6553 67.5445 25.7083 66.9991 26.6705C66.4612 27.625 65.768 28.4508 64.9195 29.1477C64.0786 29.8371 63.1165 30.3712 62.0332 30.75C60.9498 31.1288 59.768 31.3182 58.4877 31.3182C56.4726 31.3182 54.6771 30.8409 53.1014 29.8864C51.5256 28.9242 50.2832 27.5492 49.3741 25.7614C48.4726 23.9735 48.0218 21.8409 48.0218 19.3636C48.0218 16.8788 48.4764 14.7462 49.3855 12.9659C50.2945 11.178 51.537 9.80682 53.1127 8.85227C54.6885 7.89015 56.4802 7.40909 58.4877 7.40909C59.7226 7.40909 60.8741 7.58712 61.9423 7.94318C63.018 8.29167 63.9839 8.80682 64.84 9.48864C65.6961 10.1629 66.4044 10.9886 66.965 11.9659C67.5256 12.9356 67.9044 14.0455 68.1014 15.2955ZM74.2231 31V7.72727H77.7344V18.8409H78.0185L87.7799 7.72727H92.2003L82.814 18.2045L92.2344 31H88.0072L80.4844 20.6023L77.7344 23.7614V31H74.2231ZM97.3931 31V7.72727H111.984V10.75H100.904V17.8409H111.223V20.8523H100.904V27.9773H112.12V31H97.3931ZM137.378 7.72727V31H134.151L122.322 13.9318H122.106V31H118.594V7.72727H121.844L133.685 24.8182H133.901V7.72727H137.378Z" fill="#111111"/>
<path d="M2.55682 31H1.55682V32H2.55682V31ZM2.55682 7.72727V6.72727H1.55682V7.72727H2.55682ZM16.2045 9.125L15.7097 9.99399L15.7128 9.99571L16.2045 9.125ZM19.9659 13.1136L19.0723 13.5624L19.0746 13.5671L19.9659 13.1136ZM19.9545 25.5795L19.0632 25.1261L19.0617 25.1292L19.9545 25.5795ZM16.1364 29.6023L16.6244 30.4751L16.6274 30.4734L16.1364 29.6023ZM6.06818 27.9318H5.06818V28.9318H6.06818V27.9318ZM14.3182 26.9318L14.8119 27.8014L14.8161 27.799L14.3182 26.9318ZM16.9545 24.0114L17.8636 24.428L17.8645 24.426L16.9545 24.0114ZM16.9545 14.6818L16.0434 15.094L16.0455 15.0985L16.9545 14.6818ZM14.375 11.7841L13.8758 12.6506V12.6506L14.375 11.7841ZM6.06818 10.7955V9.79545H5.06818V10.7955H6.06818ZM10.0909 31V30H2.55682V31V32H10.0909V31ZM2.55682 31H3.55682V7.72727H2.55682H1.55682V31H2.55682ZM2.55682 7.72727V8.72727H10.3295V7.72727V6.72727H2.55682V7.72727ZM10.3295 7.72727V8.72727C12.4728 8.72727 14.253 9.16444 15.7097 9.99398L16.2045 9.125L16.6994 8.25602C14.8834 7.22192 12.7469 6.72727 10.3295 6.72727V7.72727ZM16.2045 9.125L15.7128 9.99571C17.1703 10.819 18.287 11.9988 19.0723 13.5624L19.9659 13.1136L20.8596 12.6649C19.9024 10.7588 18.5115 9.27952 16.6963 8.25429L16.2045 9.125ZM19.9659 13.1136L19.0746 13.5671C19.8665 15.1235 20.2841 17.0324 20.2841 19.3295H21.2841H22.2841C22.2841 16.7934 21.8229 14.5584 20.8572 12.6602L19.9659 13.1136ZM21.2841 19.3295H20.2841C20.2841 21.6333 19.863 23.5539 19.0632 25.1261L19.9545 25.5795L20.8459 26.0329C21.8188 24.1204 22.2841 21.8743 22.2841 19.3295H21.2841ZM19.9545 25.5795L19.0617 25.1292C18.2703 26.6984 17.1357 27.8911 15.6454 28.7311L16.1364 29.6023L16.6274 30.4734C18.4704 29.4346 19.8813 27.9455 20.8474 26.0299L19.9545 25.5795ZM16.1364 29.6023L15.6484 28.7294C14.1624 29.5602 12.3239 30 10.0909 30V31V32C12.5852 32 14.777 31.5079 16.6244 30.4751L16.1364 29.6023ZM6.06818 27.9318V28.9318H9.89773V27.9318V26.9318H6.06818V27.9318ZM9.89773 27.9318V28.9318C11.791 28.9318 13.4472 28.5762 14.8119 27.8014L14.3182 26.9318L13.8245 26.0622C12.8407 26.6207 11.5499 26.9318 9.89773 26.9318V27.9318ZM14.3182 26.9318L14.8161 27.799C16.1774 27.0174 17.1966 25.8832 17.8636 24.428L16.9545 24.0114L16.0455 23.5947C15.5458 24.685 14.8074 25.4978 13.8202 26.0646L14.3182 26.9318ZM16.9545 24.0114L17.8645 24.426C18.5225 22.9819 18.8295 21.2713 18.8295 19.3295H17.8295H16.8295C16.8295 21.0696 16.5533 22.4802 16.0445 23.5967L16.9545 24.0114ZM17.8295 19.3295H18.8295C18.8295 17.4019 18.5222 15.702 17.8636 14.2652L16.9545 14.6818L16.0455 15.0985C16.5536 16.2071 16.8295 17.6057 16.8295 19.3295H17.8295ZM16.9545 14.6818L17.8657 14.2697C17.2089 12.8179 16.2105 11.6875 14.8742 10.9176L14.375 11.7841L13.8758 12.6506C14.8274 13.1988 15.5487 14.0003 16.0434 15.094L16.9545 14.6818ZM14.375 11.7841L14.8742 10.9176C13.541 10.1495 11.9369 9.79545 10.1136 9.79545V10.7955V11.7955C11.6843 11.7955 12.9211 12.1005 13.8758 12.6506L14.375 11.7841ZM10.1136 10.7955V9.79545H6.06818V10.7955V11.7955H10.1136V10.7955ZM6.06818 10.7955H5.06818V27.9318H6.06818H7.06818V10.7955H6.06818ZM27.5706 31H26.5706V32H27.5706V31ZM27.5706 7.72727V6.72727H26.5706V7.72727H27.5706ZM42.1615 7.72727H43.1615V6.72727H42.1615V7.72727ZM42.1615 10.75V11.75H43.1615V10.75H42.1615ZM31.0819 10.75V9.75H30.0819V10.75H31.0819ZM31.0819 17.8409H30.0819V18.8409H31.0819V17.8409ZM41.4001 17.8409H42.4001V16.8409H41.4001V17.8409ZM41.4001 20.8523V21.8523H42.4001V20.8523H41.4001ZM31.0819 20.8523V19.8523H30.0819V20.8523H31.0819ZM31.0819 27.9773H30.0819V28.9773H31.0819V27.9773ZM42.2978 27.9773H43.2978V26.9773H42.2978V27.9773ZM42.2978 31V32H43.2978V31H42.2978ZM27.5706 31H28.5706V7.72727H27.5706H26.5706V31H27.5706ZM27.5706 7.72727V8.72727H42.1615V7.72727V6.72727H27.5706V7.72727ZM42.1615 7.72727H41.1615V10.75H42.1615H43.1615V7.72727H42.1615ZM42.1615 10.75V9.75H31.0819V10.75V11.75H42.1615V10.75ZM31.0819 10.75H30.0819V17.8409H31.0819H32.0819V10.75H31.0819ZM31.0819 17.8409V18.8409H41.4001V17.8409V16.8409H31.0819V17.8409ZM41.4001 17.8409H40.4001V20.8523H41.4001H42.4001V17.8409H41.4001ZM41.4001 20.8523V19.8523H31.0819V20.8523V21.8523H41.4001V20.8523ZM31.0819 20.8523H30.0819V27.9773H31.0819H32.0819V20.8523H31.0819ZM31.0819 27.9773V28.9773H42.2978V27.9773V26.9773H31.0819V27.9773ZM42.2978 27.9773H41.2978V31H42.2978H43.2978V27.9773H42.2978ZM42.2978 31V30H27.5706V31V32H42.2978V31ZM68.1014 15.2955V16.2955H69.2713L69.0892 15.1398L68.1014 15.2955ZM64.5559 15.2955L63.5717 15.4726L63.7198 16.2955H64.5559V15.2955ZM62.4309 11.8295L63.0291 11.0282L63.0291 11.0282L62.4309 11.8295ZM60.6241 10.9205L60.3277 11.8755L60.3308 11.8765L60.6241 10.9205ZM54.9195 11.625L54.3831 10.7811L54.3803 10.7828L54.9195 11.625ZM52.4195 14.5909L51.5148 14.1649L51.5128 14.1692L52.4195 14.5909ZM52.4195 24.1591L51.5128 24.5808L51.5148 24.5851L52.4195 24.1591ZM54.9309 27.1136L54.3987 27.9603V27.9603L54.9309 27.1136ZM60.6014 27.8182L60.8877 28.7763L60.8947 28.7742L60.6014 27.8182ZM62.4082 26.9205L61.8173 26.1137L62.4082 26.9205ZM63.7718 25.4773L62.9364 24.9277L62.9347 24.9303L63.7718 25.4773ZM64.5559 23.5L64.5591 22.5L63.7317 22.4974L63.5742 23.3097L64.5559 23.5ZM68.1014 23.5114L69.0879 23.6747L69.2799 22.5151L68.1046 22.5114L68.1014 23.5114ZM66.9991 26.6705L66.1292 26.1773L66.1279 26.1795L66.9991 26.6705ZM64.9195 29.1477L65.5535 29.9211L65.5543 29.9205L64.9195 29.1477ZM62.0332 30.75L62.3632 31.694V31.694L62.0332 30.75ZM53.1014 29.8864L52.5802 30.7399L52.5832 30.7417L53.1014 29.8864ZM49.3741 25.7614L48.4812 26.2116L48.4827 26.2146L49.3741 25.7614ZM49.3855 12.9659L50.2761 13.4207L50.2768 13.4192L49.3855 12.9659ZM53.1127 8.85227L53.6309 9.70759L53.6338 9.70576L53.1127 8.85227ZM61.9423 7.94318L61.626 8.8919L61.6341 8.89451L61.9423 7.94318ZM64.84 9.48864L64.217 10.2709L64.2213 10.2742L64.84 9.48864ZM66.965 11.9659L66.0976 12.4635L66.0993 12.4664L66.965 11.9659ZM68.1014 15.2955V14.2955H64.5559V15.2955V16.2955H68.1014V15.2955ZM64.5559 15.2955L65.5401 15.1183C65.3832 14.2469 65.086 13.4531 64.635 12.7536L63.7945 13.2955L62.9541 13.8373C63.2455 14.2893 63.4559 14.8289 63.5717 15.4726L64.5559 15.2955ZM63.7945 13.2955L64.635 12.7536C64.2005 12.0797 63.6646 11.5025 63.0291 11.0282L62.4309 11.8295L61.8327 12.6309C62.273 12.9596 62.6461 13.3597 62.9541 13.8373L63.7945 13.2955ZM62.4309 11.8295L63.0291 11.0282C62.3957 10.5554 61.6895 10.2013 60.9174 9.96444L60.6241 10.9205L60.3308 11.8765C60.892 12.0487 61.3904 12.3007 61.8327 12.6309L62.4309 11.8295ZM60.6241 10.9205L60.9205 9.96539C60.1584 9.72888 59.3571 9.61364 58.5218 9.61364V10.6136V11.6136C59.1713 11.6136 59.7716 11.7029 60.3277 11.8755L60.6241 10.9205ZM58.5218 10.6136V9.61364C57.0042 9.61364 55.6149 9.998 54.3831 10.7811L54.9195 11.625L55.456 12.4689C56.3454 11.9035 57.3576 11.6136 58.5218 11.6136V10.6136ZM54.9195 11.625L54.3803 10.7828C53.1458 11.5733 52.1963 12.7179 51.5148 14.1649L52.4195 14.5909L53.3242 15.017C53.8701 13.8578 54.5872 13.0252 55.4588 12.4672L54.9195 11.625ZM52.4195 14.5909L51.5128 14.1692C50.8295 15.6383 50.5105 17.382 50.5105 19.3636H51.5105H52.5105C52.5105 17.5876 52.7975 16.1495 53.3263 15.0126L52.4195 14.5909ZM51.5105 19.3636H50.5105C50.5105 21.359 50.8291 23.1107 51.5128 24.5808L52.4195 24.1591L53.3263 23.7374C52.7979 22.6014 52.5105 21.1561 52.5105 19.3636H51.5105ZM52.4195 24.1591L51.5148 24.5851C52.1974 26.0346 53.1532 27.1773 54.3987 27.9603L54.9309 27.1136L55.4631 26.267C54.5874 25.7166 53.8689 24.8897 53.3242 23.733L52.4195 24.1591ZM54.9309 27.1136L54.3987 27.9603C55.6282 28.7331 57.0079 29.1136 58.5105 29.1136V28.1136V27.1136C57.3615 27.1136 56.3548 26.8275 55.4631 26.267L54.9309 27.1136ZM58.5105 28.1136V29.1136C59.3357 29.1136 60.1296 29.0029 60.8877 28.7763L60.6014 27.8182L60.315 26.8601C59.755 27.0274 59.1549 27.1136 58.5105 27.1136V28.1136ZM60.6014 27.8182L60.8947 28.7742C61.6632 28.5384 62.3669 28.1902 62.9991 27.7272L62.4082 26.9205L61.8173 26.1137C61.3737 26.4386 60.8728 26.6889 60.308 26.8622L60.6014 27.8182ZM62.4082 26.9205L62.9991 27.7272C63.6358 27.2609 64.1732 26.6913 64.609 26.0242L63.7718 25.4773L62.9347 24.9303C62.628 25.3996 62.2564 25.7921 61.8173 26.1137L62.4082 26.9205ZM63.7718 25.4773L64.6072 26.0269C65.0645 25.3319 65.3713 24.5484 65.5376 23.6903L64.5559 23.5L63.5742 23.3097C63.4527 23.9365 63.2367 24.4711 62.9364 24.9277L63.7718 25.4773ZM64.5559 23.5L64.5527 24.5L68.0982 24.5114L68.1014 23.5114L68.1046 22.5114L64.5591 22.5L64.5559 23.5ZM68.1014 23.5114L67.1148 23.348C66.9437 24.3817 66.6139 25.3223 66.1292 26.1773L66.9991 26.6705L67.869 27.1636C68.4752 26.0944 68.8803 24.9289 69.0879 23.6747L68.1014 23.5114ZM66.9991 26.6705L66.1279 26.1795C65.6509 27.0261 65.0379 27.7564 64.2848 28.375L64.9195 29.1477L65.5543 29.9205C66.4981 29.1452 67.2716 28.2239 67.8703 27.1614L66.9991 26.6705ZM64.9195 29.1477L64.2856 28.3744C63.5401 28.9855 62.6821 29.4637 61.7031 29.806L62.0332 30.75L62.3632 31.694C63.5509 31.2787 64.6172 30.6887 65.5535 29.9211L64.9195 29.1477ZM62.0332 30.75L61.7031 29.806C60.7374 30.1437 59.6685 30.3182 58.4877 30.3182V31.3182V32.3182C59.8675 32.3182 61.1623 32.1139 62.3632 31.694L62.0332 30.75ZM58.4877 31.3182V30.3182C56.6376 30.3182 55.0245 29.8822 53.6195 29.0311L53.1014 29.8864L52.5832 30.7417C54.3297 31.7996 56.3076 32.3182 58.4877 32.3182V31.3182ZM53.1014 29.8864L53.6225 29.0329C52.2184 28.1756 51.0981 26.9457 50.2655 25.3081L49.3741 25.7614L48.4827 26.2146C49.4682 28.1528 50.8328 29.6729 52.5802 30.7398L53.1014 29.8864ZM49.3741 25.7614L50.267 25.3111C49.4506 23.6921 49.0218 21.7209 49.0218 19.3636H48.0218H47.0218C47.0218 21.9609 47.4945 24.2549 48.4812 26.2116L49.3741 25.7614ZM48.0218 19.3636H49.0218C49.0218 16.9992 49.4542 15.0301 50.2761 13.4207L49.3855 12.9659L48.4949 12.5111C47.4985 14.4623 47.0218 16.7583 47.0218 19.3636H48.0218ZM49.3855 12.9659L50.2768 13.4192C51.1092 11.7822 52.2286 10.557 53.6308 9.70758L53.1127 8.85227L52.5946 7.99696C50.8453 9.05663 49.4799 10.5739 48.4941 12.5127L49.3855 12.9659ZM53.1127 8.85227L53.6338 9.70576C55.0391 8.84777 56.6474 8.40909 58.4877 8.40909V7.40909V6.40909C56.3129 6.40909 54.3379 6.93253 52.5916 7.99879L53.1127 8.85227ZM58.4877 7.40909V8.40909C59.6254 8.40909 60.6692 8.57292 61.626 8.89186L61.9423 7.94318L62.2585 6.9945C61.079 6.60133 59.8197 6.40909 58.4877 6.40909V7.40909ZM61.9423 7.94318L61.6341 8.89451C62.5995 9.20724 63.458 9.66634 64.217 10.2709L64.84 9.48864L65.463 8.70642C64.5099 7.9473 63.4366 7.37609 62.2505 6.99185L61.9423 7.94318ZM64.84 9.48864L64.2213 10.2742C64.9733 10.8666 65.5985 11.5934 66.0976 12.4635L66.965 11.9659L67.8324 11.4683C67.2103 10.3839 66.4188 9.45918 65.4587 8.70304L64.84 9.48864ZM66.965 11.9659L66.0993 12.4664C66.5909 13.3167 66.9333 14.3069 67.1136 15.4511L68.1014 15.2955L69.0892 15.1398C68.8755 13.784 68.4604 12.5545 67.8307 11.4654L66.965 11.9659ZM74.2231 31H73.2231V32H74.2231V31ZM74.2231 7.72727V6.72727H73.2231V7.72727H74.2231ZM77.7344 7.72727H78.7344V6.72727H77.7344V7.72727ZM77.7344 18.8409H76.7344V19.8409H77.7344V18.8409ZM78.0185 18.8409V19.8409H78.4712L78.7699 19.5008L78.0185 18.8409ZM87.7799 7.72727V6.72727H87.3273L87.0285 7.06735L87.7799 7.72727ZM92.2003 7.72727L92.9452 8.39454L94.4388 6.72727H92.2003V7.72727ZM82.814 18.2045L82.0692 17.5373L81.5267 18.1428L82.0087 18.7974L82.814 18.2045ZM92.2344 31V32H94.2125L93.0397 30.4071L92.2344 31ZM88.0072 31L87.197 31.5862L87.4964 32H88.0072V31ZM80.4844 20.6023L81.2946 20.0161L80.5567 18.9962L79.7302 19.9457L80.4844 20.6023ZM77.7344 23.7614L76.9802 23.1048L76.7344 23.3871V23.7614H77.7344ZM77.7344 31V32H78.7344V31H77.7344ZM74.2231 31H75.2231V7.72727H74.2231H73.2231V31H74.2231ZM74.2231 7.72727V8.72727H77.7344V7.72727V6.72727H74.2231V7.72727ZM77.7344 7.72727H76.7344V18.8409H77.7344H78.7344V7.72727H77.7344ZM77.7344 18.8409V19.8409H78.0185V18.8409V17.8409H77.7344V18.8409ZM78.0185 18.8409L78.7699 19.5008L88.5312 8.38719L87.7799 7.72727L87.0285 7.06735L77.2672 18.181L78.0185 18.8409ZM87.7799 7.72727V8.72727H92.2003V7.72727V6.72727H87.7799V7.72727ZM92.2003 7.72727L91.4555 7.06001L82.0692 17.5373L82.814 18.2045L83.5588 18.8718L92.9452 8.39454L92.2003 7.72727ZM82.814 18.2045L82.0087 18.7974L91.4291 31.5929L92.2344 31L93.0397 30.4071L83.6193 17.6117L82.814 18.2045ZM92.2344 31V30H88.0072V31V32H92.2344V31ZM88.0072 31L88.8174 30.4138L81.2946 20.0161L80.4844 20.6023L79.6742 21.1884L87.197 31.5862L88.0072 31ZM80.4844 20.6023L79.7302 19.9457L76.9802 23.1048L77.7344 23.7614L78.4887 24.4179L81.2387 21.2589L80.4844 20.6023ZM77.7344 23.7614H76.7344V31H77.7344H78.7344V23.7614H77.7344ZM77.7344 31V30H74.2231V31V32H77.7344V31ZM97.3931 31H96.3931V32H97.3931V31ZM97.3931 7.72727V6.72727H96.3931V7.72727H97.3931ZM111.984 7.72727H112.984V6.72727H111.984V7.72727ZM111.984 10.75V11.75H112.984V10.75H111.984ZM100.904 10.75V9.75H99.9044V10.75H100.904ZM100.904 17.8409H99.9044V18.8409H100.904V17.8409ZM111.223 17.8409H112.223V16.8409H111.223V17.8409ZM111.223 20.8523V21.8523H112.223V20.8523H111.223ZM100.904 20.8523V19.8523H99.9044V20.8523H100.904ZM100.904 27.9773H99.9044V28.9773H100.904V27.9773ZM112.12 27.9773H113.12V26.9773H112.12V27.9773ZM112.12 31V32H113.12V31H112.12ZM97.3931 31H98.3931V7.72727H97.3931H96.3931V31H97.3931ZM97.3931 7.72727V8.72727H111.984V7.72727V6.72727H97.3931V7.72727ZM111.984 7.72727H110.984V10.75H111.984H112.984V7.72727H111.984ZM111.984 10.75V9.75H100.904V10.75V11.75H111.984V10.75ZM100.904 10.75H99.9044V17.8409H100.904H101.904V10.75H100.904ZM100.904 17.8409V18.8409H111.223V17.8409V16.8409H100.904V17.8409ZM111.223 17.8409H110.223V20.8523H111.223H112.223V17.8409H111.223ZM111.223 20.8523V19.8523H100.904V20.8523V21.8523H111.223V20.8523ZM100.904 20.8523H99.9044V27.9773H100.904H101.904V20.8523H100.904ZM100.904 27.9773V28.9773H112.12V27.9773V26.9773H100.904V27.9773ZM112.12 27.9773H111.12V31H112.12H113.12V27.9773H112.12ZM112.12 31V30H97.3931V31V32H112.12V31ZM137.378 7.72727H138.378V6.72727H137.378V7.72727ZM137.378 31V32H138.378V31H137.378ZM134.151 31L133.329 31.5696L133.628 32H134.151V31ZM122.322 13.9318L123.143 13.3622L122.845 12.9318H122.322V13.9318ZM122.106 13.9318V12.9318H121.106V13.9318H122.106ZM122.106 31V32H123.106V31H122.106ZM118.594 31H117.594V32H118.594V31ZM118.594 7.72727V6.72727H117.594V7.72727H118.594ZM121.844 7.72727L122.666 7.15778L122.368 6.72727H121.844V7.72727ZM133.685 24.8182L132.863 25.3877L133.161 25.8182H133.685V24.8182ZM133.901 24.8182V25.8182H134.901V24.8182H133.901ZM133.901 7.72727V6.72727H132.901V7.72727H133.901ZM137.378 7.72727H136.378V31H137.378H138.378V7.72727H137.378ZM137.378 31V30H134.151V31V32H137.378V31ZM134.151 31L134.973 30.4304L123.143 13.3622L122.322 13.9318L121.5 14.5015L133.329 31.5696L134.151 31ZM122.322 13.9318V12.9318H122.106V13.9318V14.9318H122.322V13.9318ZM122.106 13.9318H121.106V31H122.106H123.106V13.9318H122.106ZM122.106 31V30H118.594V31V32H122.106V31ZM118.594 31H119.594V7.72727H118.594H117.594V31H118.594ZM118.594 7.72727V8.72727H121.844V7.72727V6.72727H118.594V7.72727ZM121.844 7.72727L121.022 8.29677L132.863 25.3877L133.685 24.8182L134.507 24.2487L122.666 7.15778L121.844 7.72727ZM133.685 24.8182V25.8182H133.901V24.8182V23.8182H133.685V24.8182ZM133.901 24.8182H134.901V7.72727H133.901H132.901V24.8182H133.901ZM133.901 7.72727V8.72727H137.378V7.72727V6.72727H133.901V7.72727Z" fill="#111111" mask="url(#path-5-outside-3_0_1)"/>
<path d="M385 78L361 54H336V29L312 5L312 78H385Z" fill="#111111"/>
<path d="M315 2L339 26H364V51L388 75V2H315Z" fill="#FECA00"/>
</svg>
