<svg xmlns="http://www.w3.org/2000/svg" width="40" height="46" viewBox="0 0 40 46" fill="none"><metadata><rdf:RDF xmlns:rdf="http://www.w3.org/1999/02/22-rdf-syntax-ns#" xmlns:dc="http://purl.org/dc/elements/1.1/"><rdf:Description><dc:creator>RealFaviconGenerator</dc:creator><dc:source>https://realfavicongenerator.net</dc:source></rdf:Description></rdf:RDF></metadata><g clip-path="url(#clip0_167_714)">
<path d="M37.6457 33.8639C37.0162 34.9446 36.2735 35.9615 35.4274 36.8973L35.4501 36.9194L34.6645 37.6882C31.1671 41.1196 26.5114 43.0108 21.5536 43.0108C16.6159 43.0108 11.9728 41.1343 8.48042 37.7275C4.98804 34.3208 3.06433 29.7915 3.06433 24.9748C3.06433 24.6187 3.07441 24.2576 3.09707 23.899C3.09959 23.8499 3.1021 23.8008 3.10714 23.7492V23.7345C3.10966 23.7025 3.11217 23.6681 3.11469 23.6362V23.619C3.11973 23.5453 3.12728 23.4692 3.13484 23.3955C3.13987 23.3341 3.14491 23.2702 3.15246 23.2039C3.16253 23.1081 3.17261 23.0099 3.18268 22.9141C3.19023 22.8576 3.19527 22.7937 3.20534 22.7323C3.21541 22.6537 3.22548 22.5628 3.23807 22.4744C3.24563 22.4253 3.25318 22.3762 3.26073 22.327C3.2708 22.246 3.28591 22.1551 3.30102 22.0667C3.30857 22.02 3.31865 21.966 3.3262 21.9144C3.33375 21.8702 3.34131 21.826 3.35138 21.7818C3.36145 21.7253 3.37404 21.659 3.38663 21.5951C3.3967 21.5386 3.40929 21.4772 3.42188 21.4158C3.43699 21.3446 3.44958 21.2758 3.4672 21.2021C3.57296 20.7109 3.70389 20.2172 3.85245 19.7357L3.85749 19.7235C3.87511 19.6596 3.89525 19.5957 3.91792 19.5343C3.93554 19.4803 3.95317 19.4263 3.97079 19.3698C4.07655 19.0554 4.19237 18.7361 4.31575 18.429C4.33338 18.3873 4.351 18.3406 4.36863 18.2964C4.38877 18.2497 4.4064 18.2006 4.42906 18.149C4.45424 18.0901 4.48193 18.0238 4.50963 17.9574C4.52978 17.9083 4.55495 17.8518 4.58013 17.7978L4.59021 17.7732C4.62546 17.6995 4.65819 17.6234 4.69344 17.5497C4.71862 17.4932 4.7438 17.4392 4.7715 17.3851C5.23732 16.4027 5.80385 15.4546 6.45096 14.5654L6.55672 14.4254C6.62974 14.3272 6.70276 14.2289 6.7783 14.1356C6.81355 14.0914 6.85132 14.0422 6.88909 13.9956C6.96966 13.8924 7.05275 13.7917 7.13333 13.6935C7.18117 13.637 7.22901 13.5756 7.27937 13.5191C7.32469 13.465 7.37505 13.4085 7.42541 13.3496C7.47325 13.2931 7.52612 13.2341 7.57648 13.1776C7.6344 13.1138 7.69231 13.0475 7.75022 12.9836L5.57976 10.8639C1.9791 14.7275 0 19.721 0 24.9724C0 30.5898 2.24097 35.8682 6.31248 39.8399C10.384 43.8116 15.795 45.9976 21.5536 45.9976C27.3297 45.9976 32.7559 43.7968 36.8299 39.803C37.9932 38.6633 39.018 37.4008 39.8817 36.0426L37.6457 33.8639Z" fill="#C8A35F"></path>
<path d="M10.0592 36.1875C13.1285 39.1816 17.2126 40.8322 21.5535 40.8322C21.6895 40.8322 21.8255 40.8297 21.9614 40.8273C22.0294 40.8273 22.0949 40.8248 22.1629 40.8224H22.173C22.2737 40.8174 22.3719 40.8125 22.4726 40.8076C22.5532 40.8027 22.6312 40.7978 22.7118 40.7929C22.7521 40.7904 22.7873 40.788 22.8201 40.7855L22.8755 40.7806C22.9485 40.7757 23.0215 40.7683 23.097 40.7609C23.1625 40.756 23.2229 40.7511 23.2859 40.7438C23.3312 40.7388 23.3715 40.7339 23.4093 40.7315L23.4924 40.7216C23.5452 40.7143 23.5981 40.7094 23.6535 40.702C23.8549 40.6774 24.0513 40.6504 24.2452 40.6185C24.3006 40.6087 24.3535 40.5988 24.4064 40.5915L24.424 40.589C24.4668 40.5816 24.5096 40.5743 24.5499 40.5669L24.57 40.562C24.6254 40.5522 24.6808 40.5423 24.7362 40.5301C24.8823 40.503 25.0258 40.4736 25.1668 40.4416C25.2625 40.422 25.3581 40.3974 25.4538 40.3753L25.4664 40.3729C25.4916 40.368 25.5143 40.363 25.5394 40.3557C25.6099 40.3385 25.6729 40.3213 25.7384 40.3066C25.7937 40.2918 25.8466 40.2795 25.897 40.2648C25.9423 40.2525 25.9826 40.2427 26.0204 40.2304C26.0581 40.2206 26.0883 40.2132 26.116 40.2034L26.1387 40.196C26.179 40.1862 26.2193 40.1739 26.2596 40.1616C26.3276 40.142 26.3855 40.1248 26.4434 40.1051C26.4912 40.0904 26.5315 40.0781 26.5768 40.0658C26.7128 40.0216 26.8488 39.9774 26.9822 39.9307C27.02 39.9185 27.0552 39.9062 27.0905 39.8939L27.1182 39.8841C27.166 39.8669 27.2088 39.8521 27.2491 39.8374C27.3171 39.8129 27.375 39.7907 27.4354 39.7686C27.4858 39.749 27.5311 39.7342 27.5739 39.7171C27.657 39.6851 27.7326 39.6557 27.8081 39.6237L28.0347 39.5304C28.1052 39.5009 28.1757 39.4714 28.2412 39.442C28.2815 39.4248 28.3142 39.41 28.3495 39.3953L28.3822 39.3806C28.4376 39.356 28.493 39.329 28.5484 39.3044C28.8908 39.1448 29.2282 38.9753 29.553 38.7935C29.5883 38.7739 29.621 38.7542 29.6563 38.737C29.7318 38.6953 29.8073 38.6511 29.8804 38.6093L30.253 38.3858C30.4167 38.2826 30.5879 38.1746 30.7717 38.0517C30.8221 38.0174 30.8724 37.983 30.9228 37.9486L30.9429 37.9338C30.9807 37.9068 31.0185 37.8823 31.0562 37.8552L31.0663 37.8479C31.094 37.8282 31.1217 37.8086 31.1494 37.7889L31.1595 37.7816C31.2073 37.7496 31.2526 37.7152 31.298 37.6809C31.3508 37.644 31.4012 37.6047 31.449 37.5679C31.4843 37.5408 31.512 37.5187 31.5422 37.4966L31.5775 37.4696C31.6278 37.4303 31.6807 37.391 31.731 37.3493C31.7839 37.3075 31.8368 37.2658 31.8872 37.2265L31.8998 37.2166C31.998 37.138 32.0936 37.057 32.1918 36.9759C32.222 36.9514 32.2497 36.9268 32.28 36.8998L30.107 34.7776C27.7275 36.7573 24.7085 37.8405 21.5611 37.8405C14.2893 37.8405 8.37213 32.0684 8.37213 24.9749C8.37213 21.5165 9.75952 18.2718 12.2749 15.8377C13.4559 14.6956 14.8709 13.7696 16.3993 13.1334L14.0929 10.8835C12.6224 11.6278 11.2804 12.5832 10.0994 13.7278C7.00237 16.7269 5.29773 20.7182 5.29773 24.9724C5.29773 29.2094 6.98978 33.1909 10.0592 36.1875Z" fill="#907C4B"></path>
<path d="M40 21.0252C40 15.4078 37.759 10.1294 33.6875 6.15773C29.616 2.18603 24.2025 0 18.4439 0C12.6678 0 7.24162 2.19831 3.17011 6.19457C2.00682 7.3318 0.982016 8.59675 0.115845 9.95504L2.35429 12.1386C2.98378 11.0579 3.72657 10.041 4.5726 9.10519L4.54994 9.08308L5.33553 8.31429C8.83044 4.88296 13.4886 2.99167 18.4464 2.99167C23.3841 2.99167 28.0272 4.86822 31.5196 8.27499C35.012 11.6818 36.9357 16.2086 36.9357 21.0277C36.9357 21.3838 36.9256 21.7473 36.9029 22.1035C36.9004 22.1501 36.8979 22.2017 36.8929 22.2533C36.8904 22.2902 36.8878 22.327 36.8853 22.3638V22.381C36.8803 22.4547 36.8727 22.5309 36.8652 22.6045C36.8601 22.666 36.8551 22.7323 36.8476 22.7986C36.8375 22.8919 36.8274 22.9902 36.8173 23.0884C36.8098 23.1449 36.8047 23.2063 36.7947 23.2702C36.7846 23.3488 36.7745 23.4372 36.7619 23.5281C36.7544 23.5772 36.7468 23.6263 36.7393 23.673C36.7292 23.7565 36.7141 23.8449 36.699 23.9358C36.6914 23.9825 36.6814 24.0365 36.6738 24.0881C36.6663 24.1323 36.6587 24.1765 36.6486 24.2207C36.6386 24.2772 36.626 24.3435 36.6134 24.4074C36.6033 24.4639 36.5907 24.5253 36.5756 24.5867C36.563 24.6555 36.5479 24.7267 36.5303 24.8004C36.4245 25.2916 36.2936 25.7878 36.145 26.2668C36.1249 26.3331 36.1048 26.4019 36.0796 26.4706C36.062 26.5247 36.0443 26.5787 36.0267 26.6352C35.921 26.952 35.8051 27.2689 35.6817 27.5759C35.6641 27.6177 35.6465 27.6619 35.6289 27.7061C35.6087 27.7552 35.5886 27.8044 35.5684 27.8535C35.5433 27.9124 35.5156 27.9787 35.4879 28.0451C35.4677 28.0942 35.4425 28.1507 35.4174 28.2047L35.4073 28.2293C35.372 28.303 35.3393 28.3791 35.3041 28.4528C35.2789 28.5093 35.2537 28.5633 35.226 28.6174C34.7602 29.5998 34.1936 30.5479 33.5465 31.4371L33.4433 31.5771C33.3678 31.6778 33.2947 31.7736 33.2217 31.8669C33.1865 31.9136 33.1487 31.9603 33.1109 32.0069C33.0304 32.1101 32.9473 32.2108 32.8667 32.3091C32.8188 32.3655 32.771 32.427 32.7206 32.4834C32.6778 32.535 32.6325 32.5891 32.5847 32.6431L32.5746 32.6529C32.5242 32.7094 32.4739 32.7684 32.421 32.8249C32.3631 32.8887 32.3052 32.955 32.2473 33.0189L34.4177 35.1386C38.0209 31.275 40 26.279 40 21.0252Z" fill="#907C4B"></path>
<path d="M23.6057 32.8692L25.9121 35.1191C27.3826 34.3748 28.7246 33.4194 29.9055 32.2748C33.0001 29.2757 34.7022 25.2819 34.7022 21.0278C34.7022 16.7932 33.0102 12.8093 29.9408 9.81513C26.8689 6.81855 22.7873 5.16797 18.4439 5.16797C18.3079 5.16797 18.1719 5.17042 18.036 5.17288C17.968 5.17288 17.9025 5.17534 17.8345 5.17779H17.827C17.7263 5.18271 17.6281 5.18762 17.5273 5.19253C17.4468 5.19744 17.3687 5.20236 17.2881 5.20727C17.2479 5.20972 17.2126 5.21218 17.1799 5.21464L17.1245 5.21955C17.054 5.22446 16.9784 5.23183 16.9054 5.2392C16.8399 5.24657 16.7795 5.25148 16.7166 5.25885C16.6712 5.26376 16.631 5.26867 16.5932 5.27113L16.5302 5.2785C16.5227 5.2785 16.5151 5.28095 16.5101 5.28095C16.4572 5.28587 16.4043 5.29324 16.3515 5.3006C16.15 5.32517 15.9536 5.35464 15.7598 5.38412C15.7044 5.39394 15.6515 5.40131 15.5986 5.41113L15.581 5.41359C15.5382 5.42096 15.4979 5.42833 15.4576 5.4357L15.4299 5.44061C15.377 5.45043 15.3241 5.46026 15.2688 5.47008C15.1177 5.4971 14.9742 5.52658 14.8332 5.55851C14.7375 5.57816 14.6418 5.60272 14.5461 5.62482L14.5335 5.62728C14.5083 5.63219 14.4857 5.63711 14.4605 5.64447C14.39 5.66167 14.327 5.67886 14.2616 5.6936C14.2062 5.70834 14.1558 5.72062 14.1029 5.73535C14.0576 5.74764 14.0173 5.75746 13.9771 5.76974C13.9393 5.77957 13.9091 5.78939 13.8814 5.79676L13.8587 5.80413C13.8184 5.81395 13.7781 5.82623 13.7378 5.83852C13.6699 5.85817 13.612 5.87536 13.554 5.89501C13.5062 5.90975 13.4659 5.92203 13.4206 5.93431C13.2846 5.97852 13.1486 6.02273 13.0152 6.0694C12.9774 6.08168 12.9447 6.09396 12.9094 6.10624L12.8792 6.11607C12.8339 6.13326 12.7936 6.14554 12.7533 6.16274C12.6828 6.1873 12.6224 6.2094 12.562 6.23397C12.5116 6.25362 12.4688 6.27081 12.4235 6.288C12.3404 6.31993 12.2649 6.34941 12.1893 6.38134L11.9627 6.47468C11.8922 6.50415 11.8242 6.53363 11.7562 6.5631C11.7185 6.58029 11.6832 6.59503 11.648 6.60977L11.6152 6.62451C11.5598 6.64907 11.5044 6.67609 11.449 6.70065C11.1066 6.8603 10.7692 7.02978 10.4444 7.21154C10.4066 7.23119 10.3764 7.24838 10.3411 7.26803C10.2706 7.30733 10.1976 7.34909 10.1296 7.38839L9.89547 7.52839C9.84763 7.55787 9.79727 7.5898 9.74691 7.61927C9.58073 7.72243 9.41203 7.83051 9.23073 7.95332C9.18289 7.98525 9.13757 8.01718 9.09225 8.04665L9.06203 8.0663C9.01923 8.09578 8.98146 8.1228 8.94369 8.14982L8.92858 8.15964C8.9034 8.17929 8.87822 8.19648 8.85053 8.21613L8.84045 8.2235C8.79261 8.25543 8.74729 8.28982 8.70197 8.32421C8.64909 8.36105 8.60125 8.40035 8.55089 8.43719C8.51564 8.46421 8.48542 8.48632 8.45773 8.50842L8.42248 8.53544C8.37212 8.57474 8.31924 8.61404 8.26888 8.6558C8.21097 8.70001 8.15557 8.74668 8.10018 8.79089C8.00198 8.86949 7.9063 8.94809 7.8081 9.0316C7.77788 9.05616 7.75019 9.08072 7.71997 9.10774L9.89547 11.2299C12.2749 9.2502 15.2939 8.16455 18.4414 8.16455C25.7132 8.16455 31.6303 13.9367 31.6303 21.0302C31.6303 24.4886 30.2429 27.7332 27.7275 30.1673C26.5491 31.3046 25.134 32.233 23.6057 32.8692Z" fill="#C8A35F"></path>
</g><defs>
<clipPath id="clip0_167_714">
<rect width="40" height="46" fill="white"></rect>
</clipPath>
</defs></svg>