<svg width="32" height="24" viewBox="0 0 32 24" fill="none" xmlns="http://www.w3.org/2000/svg">
  <g clip-path="url(#clip0_243_3881)">
    <path d="M3 0.5H29C30.3807 0.5 31.5 1.61929 31.5 3V21C31.5 22.3807 30.3807 23.5 29 23.5H3C1.61929 23.5 0.5 22.3807 0.5 21V3C0.5 1.61929 1.61929 0.5 3 0.5Z" fill="#FDF4DC" stroke="#FAE7B9"/>
    <path fill-rule="evenodd" clip-rule="evenodd" d="M11.9343 7.49537V6H13.3841V7.49537H18.6157V6H20.0655V7.49537H20.3804C21.7647 7.49537 21.9821 7.74383 22 8.95818V16.5003C22 17.562 21.9044 18 20.5991 18H11.4091C10.1037 18 10 17.6817 10 16.3927V9.10516C10.0175 8.08049 10.1167 7.49536 11.5006 7.49536L11.9343 7.49537ZM11.1602 16.1821C11.1602 16.5877 11.2825 16.6147 11.5481 16.6147H20.5007C20.7658 16.6147 20.8402 16.6084 20.8402 16.2021V10.1148C20.8328 9.80121 20.7311 9.74609 20.5249 9.74609H11.4534C11.247 9.74609 11.1574 9.79141 11.1602 10.0327L11.1602 16.1821Z" fill="#D9822F"/>
    <circle cx="26.5" cy="5.5" r="3.5" fill="#FAE7B9"/>
    <path d="M27.1505 4.75954C27.1363 4.61631 27.0754 4.50505 26.9676 4.42574C26.8599 4.34643 26.7137 4.30677 26.5291 4.30677C26.4036 4.30677 26.2977 4.32453 26.2112 4.36004C26.1248 4.39437 26.0585 4.44231 26.0124 4.50386C25.9674 4.56541 25.9449 4.63525 25.9449 4.71338C25.9425 4.77848 25.9562 4.8353 25.9858 4.88383C26.0165 4.93237 26.0585 4.97439 26.1118 5.0099C26.1651 5.04423 26.2266 5.07441 26.2965 5.10045C26.3663 5.12531 26.4409 5.14662 26.5202 5.16437L26.8469 5.2425C27.0055 5.27801 27.1511 5.32536 27.2837 5.38454C27.4163 5.44373 27.5311 5.51653 27.6282 5.60294C27.7252 5.68935 27.8004 5.79115 27.8536 5.90834C27.9081 6.02552 27.9359 6.15988 27.9371 6.31139C27.9359 6.53393 27.8791 6.72687 27.7666 6.89023C27.6554 7.05239 27.4944 7.17846 27.2837 7.26842C27.0742 7.3572 26.8215 7.40159 26.5255 7.40159C26.232 7.40159 25.9763 7.35661 25.7585 7.26665C25.5419 7.17668 25.3726 7.04352 25.2507 6.86714C25.1299 6.68959 25.0666 6.47001 25.0607 6.20841H25.8046C25.8129 6.33033 25.8478 6.43213 25.9094 6.51381C25.9721 6.5943 26.0556 6.65526 26.1598 6.69669C26.2651 6.73693 26.3841 6.75706 26.5166 6.75706C26.6469 6.75706 26.7599 6.73812 26.8558 6.70024C26.9528 6.66236 27.028 6.60969 27.0813 6.54221C27.1345 6.47474 27.1612 6.39721 27.1612 6.30961C27.1612 6.22794 27.1369 6.15928 27.0884 6.10365C27.041 6.04801 26.9712 6.00067 26.8789 5.9616C26.7877 5.92254 26.6759 5.88703 26.5433 5.85507L26.1473 5.75564C25.8407 5.68106 25.5987 5.56447 25.4211 5.40585C25.2436 5.24723 25.1554 5.03357 25.1566 4.76487C25.1554 4.5447 25.214 4.35235 25.3323 4.18781C25.4519 4.02327 25.6158 3.89484 25.8242 3.80251C26.0325 3.71018 26.2693 3.66402 26.5344 3.66402C26.8043 3.66402 27.0398 3.71018 27.2411 3.80251C27.4435 3.89484 27.6009 4.02327 27.7134 4.18781C27.8258 4.35235 27.8838 4.54292 27.8874 4.75954H27.1505Z" fill="#D9822F"/>
  </g>
  <defs>
    <clipPath id="clip0_243_3881">
      <rect width="32" height="24" fill="white"/>
    </clipPath>
  </defs>
</svg>
