<svg width="31" height="31" viewBox="0 0 31 31" fill="none" xmlns="http://www.w3.org/2000/svg">
<path d="M18.3203 0C20.1713 9.30347e-05 21.947 0.735195 23.2559 2.04395C24.5648 3.35293 25.3008 5.12934 25.3008 6.98047V9.73633C25.7619 9.77941 26.2167 9.88212 26.6533 10.043C27.3368 10.2948 27.9619 10.6841 28.4902 11.1855C29.0186 11.6871 29.4395 12.2914 29.7266 12.9609C30.0135 13.6304 30.1611 14.3517 30.1602 15.0801V15.0811C30.1571 16.1868 29.8115 17.265 29.1719 18.167C28.6015 18.9711 27.8211 19.5991 26.9199 19.9873V24.7998C26.9199 25.362 26.6963 25.9013 26.2988 26.2988C25.9013 26.6962 25.3619 26.9199 24.7998 26.9199H23.6807V29.6602C23.6804 29.9359 23.4564 30.1598 23.1807 30.1602C22.9047 30.1602 22.6809 29.9361 22.6807 29.6602V26.9199H19.9492C19.9463 26.92 19.9434 26.9209 19.9404 26.9209H10.2207C10.2179 26.9209 10.2147 26.92 10.2119 26.9199H7.48047V29.6602C7.48024 29.9359 7.25626 30.1599 6.98047 30.1602C6.70447 30.1602 6.48071 29.9361 6.48047 29.6602V26.9199H5.36036C4.79818 26.9199 4.25889 26.6963 3.86133 26.2988C3.46381 25.9013 3.24024 25.362 3.24024 24.7998V19.9873C2.33895 19.5991 1.55868 18.9712 0.988286 18.167C0.348609 17.265 0.00311236 16.1869 4.56657e-06 15.0811V15.0801C-0.000946336 14.3517 0.146618 13.6304 0.433598 12.9609C0.720659 12.2914 1.1416 11.6871 1.66993 11.1855C2.19826 10.684 2.82331 10.2948 3.50684 10.043C3.94379 9.88199 4.39889 9.77934 4.86036 9.73633V6.98047C4.86036 5.12926 5.5953 3.35295 6.9043 2.04395C8.21329 0.735051 9.9897 0 11.8408 0H18.3203ZM10.7197 25.9209H19.4404V20.4404H10.7197V25.9209ZM5.36036 10.7197C5.34056 10.7197 5.32096 10.7161 5.30176 10.7139C4.8077 10.7205 4.31748 10.8102 3.85254 10.9814C3.29648 11.1863 2.7882 11.5031 2.3584 11.9111C1.92863 12.3191 1.58605 12.8108 1.35254 13.3555C1.11929 13.8997 0.999319 14.486 1 15.0781C1.00253 15.9776 1.28339 16.8552 1.80372 17.5889C2.32399 18.3223 3.05849 18.8769 3.90625 19.1768C4.10597 19.2474 4.24016 19.4366 4.24024 19.6484V24.7998C4.24024 25.0968 4.35838 25.3818 4.56836 25.5918C4.77839 25.8017 5.06339 25.9199 5.36036 25.9199H9.71973V15.3467C9.73935 14.1945 9.32359 13.0771 8.55469 12.2188C7.78684 11.3617 6.72365 10.8255 5.57813 10.7178C5.52442 10.7151 5.47068 10.7146 5.417 10.7139C5.39831 10.716 5.37961 10.7197 5.36036 10.7197ZM24.8008 10.7197C24.781 10.7197 24.7614 10.7161 24.7422 10.7139C24.6885 10.7146 24.6348 10.7151 24.5811 10.7178C23.436 10.8257 22.3731 11.362 21.6055 12.2188C20.8366 13.0771 20.4208 14.1945 20.4404 15.3467V25.9199H24.7998C25.0967 25.9199 25.3818 25.8017 25.5918 25.5918C25.8017 25.3818 25.9199 25.0967 25.9199 24.7998V19.6484C25.92 19.4366 26.0542 19.2474 26.2539 19.1768C27.1016 18.8769 27.8362 18.3222 28.3564 17.5889C28.8767 16.8552 29.1576 15.9776 29.1602 15.0781C29.1608 14.486 29.0409 13.8997 28.8076 13.3555C28.5741 12.8108 28.2315 12.3192 27.8018 11.9111C27.372 11.5031 26.8637 11.1864 26.3076 10.9814C25.8424 10.8101 25.3518 10.7205 24.8574 10.7139C24.8387 10.716 24.82 10.7197 24.8008 10.7197ZM11.8408 1C10.2549 1 8.73376 1.6306 7.61231 2.75195C6.49084 3.87342 5.86036 5.39447 5.86036 6.98047V9.74414C7.18401 9.91442 8.40538 10.5546 9.29883 11.5518C10.2342 12.5958 10.7415 13.9541 10.7197 15.3555V19.4404H19.4404V15.3555C19.4186 13.9541 19.926 12.5958 20.8613 11.5518C21.755 10.5543 22.9767 9.91417 24.3008 9.74414V6.98047C24.3008 5.39466 23.6701 3.87338 22.5488 2.75195C21.4274 1.63057 19.9062 1.00009 18.3203 1H11.8408Z" fill="currentColor"/>
</svg>

