<?xml version="1.0" standalone="no"?>
<!DOCTYPE svg PUBLIC "-//W3C//DTD SVG 20010904//EN"
 "http://www.w3.org/TR/2001/REC-SVG-20010904/DTD/svg10.dtd">
<svg version="1.0" xmlns="http://www.w3.org/2000/svg"
 width="960.000000pt" height="953.000000pt" viewBox="0 0 960.000000 953.000000"
 preserveAspectRatio="xMidYMid meet">

<g transform="translate(0.000000,953.000000) scale(0.100000,-0.100000)"
fill="currentColor" stroke="none">
<path d="M8324 8747 c-54 -20 -97 -57 -154 -130 -67 -86 -99 -135 -175 -262
-44 -74 -53 -89 -87 -142 -16 -23 -28 -44 -28 -47 0 -4 -127 -220 -215 -366
-9 -14 -76 -127 -150 -251 -74 -124 -148 -238 -164 -253 -43 -41 -231 -87
-494 -122 -246 -31 -717 -6 -937 51 -187 49 -427 140 -638 243 -121 60 -580
297 -645 333 -38 22 -70 39 -72 39 -1 0 -47 25 -101 56 -498 283 -916 421
-1419 470 -307 30 -734 -6 -1015 -86 -388 -109 -658 -255 -941 -507 -218 -194
-425 -439 -563 -665 -287 -470 -402 -969 -355 -1535 17 -208 67 -460 120 -603
11 -30 25 -69 30 -87 18 -59 167 -342 230 -435 168 -250 348 -433 596 -607 56
-39 105 -71 107 -71 3 0 29 -14 58 -32 149 -89 311 -153 540 -211 394 -101
829 -85 1211 44 81 28 228 89 247 104 8 6 31 19 50 28 125 61 337 224 479 367
145 146 253 294 328 450 108 226 163 467 163 715 0 211 -50 474 -120 630 -10
22 -32 74 -50 115 -60 138 -112 219 -213 330 -250 274 -566 443 -937 500 -102
15 -367 12 -472 -6 -177 -30 -248 -53 -428 -137 -152 -71 -322 -211 -435 -357
-53 -68 -145 -245 -167 -320 -9 -30 -22 -73 -28 -95 -7 -22 -14 -105 -17 -185
-5 -156 9 -244 61 -384 97 -256 343 -475 616 -547 109 -29 307 -31 415 -5 225
54 395 208 466 421 9 24 14 83 14 150 -1 123 -7 142 -86 248 -33 44 -51 60
-81 68 -65 17 -73 11 -76 -53 -2 -32 4 -81 13 -109 62 -212 -51 -424 -263
-493 -65 -22 -233 -25 -312 -6 -185 44 -368 187 -452 356 -51 101 -71 174 -76
288 -5 111 3 169 39 279 40 127 135 276 228 360 43 38 209 147 224 147 4 0 30
11 59 24 155 70 360 116 520 116 93 0 257 -27 359 -60 220 -71 491 -255 644
-439 119 -143 204 -318 252 -521 25 -106 28 -132 28 -320 0 -199 -1 -208 -33
-329 -96 -366 -299 -644 -647 -885 -185 -129 -384 -206 -660 -258 -111 -21
-486 -17 -610 5 -223 41 -384 91 -538 168 -133 66 -163 84 -307 188 -94 67
-336 310 -416 416 -66 87 -184 260 -184 269 0 3 -13 27 -29 53 -66 107 -166
377 -202 547 -19 88 -36 246 -43 391 -4 86 19 362 38 464 35 186 116 447 178
578 75 159 202 358 307 481 106 125 333 317 489 414 223 140 523 266 747 315
39 8 99 21 135 29 147 32 442 45 665 29 303 -21 742 -132 976 -246 44 -22 82
-39 84 -39 7 0 168 -80 279 -139 114 -61 126 -68 260 -145 54 -31 128 -73 165
-92 36 -20 107 -58 156 -85 172 -94 371 -191 485 -236 63 -25 129 -51 145 -58
138 -59 453 -136 685 -166 52 -7 203 -13 335 -13 233 -1 314 5 511 40 132 23
154 17 120 -31 -7 -11 -48 -85 -91 -165 -87 -164 -149 -278 -178 -330 -11 -19
-41 -73 -67 -120 -26 -47 -59 -105 -73 -130 -13 -25 -59 -110 -102 -190 -42
-80 -81 -149 -85 -155 -9 -12 -43 -73 -120 -215 -85 -157 -117 -215 -182 -328
-32 -56 -78 -140 -101 -185 -24 -45 -54 -100 -67 -122 -12 -22 -37 -67 -55
-100 -18 -33 -47 -85 -64 -115 -17 -30 -57 -102 -88 -160 -31 -58 -84 -154
-118 -215 -75 -132 -103 -183 -163 -295 -25 -47 -82 -150 -127 -230 -100 -177
-130 -232 -210 -380 -34 -63 -82 -151 -107 -195 -55 -97 -189 -340 -248 -450
-23 -44 -59 -109 -80 -145 -20 -36 -68 -123 -105 -195 -38 -71 -78 -146 -90
-165 -21 -34 -58 -101 -146 -268 -23 -42 -51 -95 -64 -117 -12 -22 -39 -71
-60 -110 -20 -38 -50 -92 -65 -120 -15 -27 -41 -75 -57 -105 -110 -200 -162
-326 -142 -345 22 -21 179 177 333 421 52 82 132 208 179 279 47 72 136 209
198 305 61 96 144 225 184 285 88 136 176 272 236 367 26 40 69 107 95 148 27
41 53 83 59 92 5 10 47 75 93 145 121 186 225 347 282 438 28 44 92 144 143
222 51 78 128 199 172 268 44 68 113 175 153 237 40 62 126 195 190 296 64
100 138 215 165 255 26 40 50 79 54 87 3 8 39 65 79 125 135 207 294 456 294
461 0 3 5 10 11 17 5 7 38 55 72 108 90 138 210 327 222 347 17 28 64 101 134
207 36 55 68 105 70 110 2 6 45 73 96 150 50 77 102 158 115 180 24 41 84 134
232 360 47 72 115 178 152 237 95 152 116 164 240 132 244 -61 408 -160 545
-327 168 -206 237 -386 248 -642 7 -181 -18 -328 -90 -515 -136 -357 -379
-645 -802 -951 -101 -73 -86 -62 -475 -323 -359 -241 -455 -313 -566 -429
-125 -129 -186 -213 -254 -352 -94 -190 -120 -298 -120 -501 0 -287 98 -535
281 -711 208 -200 443 -302 736 -320 120 -7 153 5 153 57 0 40 -13 44 -180 64
-74 8 -151 21 -170 27 -170 55 -289 116 -387 198 -96 80 -215 260 -245 371
-39 145 -47 202 -47 315 0 193 44 335 165 526 39 63 188 231 260 295 142 125
324 256 525 380 542 333 806 537 1015 785 65 76 204 263 204 273 0 2 16 32 35
67 20 34 52 101 72 148 19 47 41 100 48 116 7 17 20 64 29 105 10 41 22 95 29
120 8 28 12 124 12 255 0 184 -3 220 -22 295 -80 307 -189 480 -427 680 -105
87 -188 135 -366 211 -156 66 -170 74 -170 96 0 8 29 74 63 146 86 178 106
223 163 357 43 102 48 123 48 185 -1 50 -7 81 -22 110 -25 48 -77 100 -115
114 -37 14 -154 13 -193 -2z m21 -406 c5 -10 -50 -131 -111 -241 -57 -105
-260 -417 -311 -480 -72 -89 -131 -119 -120 -62 27 143 151 377 314 591 69 91
183 200 210 201 6 0 14 -4 18 -9z"/>
</g>
</svg>
